<svg width="111" height="130" viewBox="0 0 111 130" fill="none" xmlns="http://www.w3.org/2000/svg">
<g clip-path="url(#clip0_26_1629)">
<path d="M110.551 54.3081C110.551 51.8685 110.4 49.5774 110.054 47.2226C106.577 20.5989 83.3831 0 55.2864 0C27.2113 0 3.97371 20.5989 0.496714 47.2014C0.151174 49.5561 0 51.8685 0 54.3081C0 55.5809 0.0431925 56.8538 0.194366 58.1054C0.215962 58.4873 0.237559 58.9328 0.302347 59.3146C0.34554 59.8026 0.388732 60.2481 0.496714 60.7148C0.496714 60.736 0.496714 60.736 0.496714 60.7572C0.928639 64.4484 1.7061 68.0336 2.8939 71.3855C3.36901 72.8704 3.95211 74.2281 4.49202 75.6283C4.6 75.8404 4.72958 76.0738 4.83756 76.3496C4.83756 76.3708 4.85916 76.392 4.85916 76.4344C5.93897 78.8316 7.16995 81.1439 8.6169 83.3502C18.1408 99.579 34.4028 118.502 49.4122 128.176C49.4554 128.218 49.5634 128.282 49.6498 128.324C49.9089 128.515 50.2113 128.706 50.5136 128.897C50.6 128.939 50.6648 128.982 50.7512 129.024C51.8526 129.639 53.1484 129.979 54.5521 129.979C55.7399 129.979 56.8413 129.745 57.8779 129.279C58.3099 129.067 58.7202 128.833 59.1521 128.557C77.3577 117.993 93.5765 99.4941 103.684 80.4015C103.727 80.359 103.77 80.2954 103.792 80.2105C104.116 79.6165 104.418 79.0225 104.742 78.4285C105.066 77.8133 105.368 77.1557 105.627 76.5405C105.778 76.2647 105.908 75.9465 106.059 75.6283C106.275 75.1404 106.491 74.6524 106.685 74.1433C106.923 73.5705 107.161 72.9765 107.377 72.3825C107.506 72.0643 107.614 71.7461 107.722 71.3642H95.1315C94.5268 72.7007 93.9005 73.9524 93.123 75.1616C93.0366 75.3525 92.9718 75.4798 92.8855 75.6071C88.9117 82.1622 83.2103 87.5294 76.3643 91.0934C70.447 94.2543 63.6009 96.0362 56.3662 96.0362C40.7953 96.0362 27.2329 87.8264 19.847 75.6071C19.0479 74.2281 18.292 72.8704 17.6009 71.3642C15.8948 67.6093 14.707 63.5574 14.1671 59.2934H110.249C110.443 57.6387 110.551 56.0052 110.551 54.3081ZM14.5127 47.2014C17.9249 27.5147 35.3746 12.58 56.3878 12.58C77.3793 12.58 94.8723 27.5359 98.2629 47.2226H14.5127V47.2014Z" fill="#16D59F"/>
</g>
<defs>
<clipPath id="clip0_26_1629">
<rect width="110.551" height="130" fill="white"/>
</clipPath>
</defs>
</svg>
