<svg width="1876" height="1216" viewBox="0 0 1876 1216" fill="none" xmlns="http://www.w3.org/2000/svg">
<path d="M499.61 160.41L499.54 160.17C494.108 161.486 488.41 161.18 483.15 159.29C478.617 157.548 474.365 155.149 470.53 152.17C469.27 151.24 468.25 150.17 466.95 151.48C466.04 152.39 465.76 153.77 465.07 154.79C463.802 156.772 462.141 158.474 460.19 159.79C453.75 164.05 445.19 163.26 437.77 161.14C419.54 155.97 403.83 144 391.23 129.82C383.54 120.945 376.577 111.464 370.41 101.47C366.532 127.433 355.445 151.787 338.41 171.76C335.55 175.11 331.61 178.19 329.34 181.89C326.66 186.28 326.14 191.25 325.01 196.16C321.482 211.435 315.447 226.019 307.15 239.32C305.41 242.1 302.74 245.18 299.55 244.48C297.63 244.05 296.3 242.37 295.1 240.81C287.75 231.24 277.41 221.62 265.44 223.17C253.47 224.72 245.68 237.3 245.49 249.22C245.333 258.178 248.502 266.877 254.385 273.635C260.267 280.393 268.446 284.731 277.34 285.81C277.407 290.28 276.275 294.687 274.06 298.57C273.31 299.88 272.76 300.76 271.52 300.99C274.4 326.09 276.69 351.25 279.6 376.32C279.6 376.61 279.67 376.9 279.7 377.18C281.05 388.85 282.44 400.39 284.3 411.94C305.68 429.66 333.95 440.15 361.39 436.13C375.45 434.13 390.1 426.97 396.13 414.46C325.53 390.67 310.13 324.37 310.13 324.37C326.41 345.22 349.06 361.5 374.71 367.96C380.287 369.358 385.975 370.265 391.71 370.67C398.171 371.142 404.662 370.978 411.09 370.18H411.22C412.43 370.03 413.63 369.85 414.83 369.65H415.06C427.829 367.589 439.98 362.711 450.63 355.37C468.22 343 480.49 324.17 488 304.06C495.51 283.95 498.61 262.5 500.75 241.15C503.542 214.285 503.159 187.185 499.61 160.41ZM406.1 239.47C403.962 239.472 401.871 238.84 400.092 237.653C398.313 236.467 396.926 234.779 396.106 232.804C395.286 230.829 395.071 228.655 395.487 226.557C395.903 224.46 396.931 222.533 398.443 221.02C399.954 219.507 401.88 218.477 403.977 218.059C406.075 217.641 408.249 217.854 410.225 218.672C412.2 219.49 413.889 220.876 415.078 222.653C416.266 224.431 416.9 226.522 416.9 228.66C416.897 231.525 415.759 234.271 413.734 236.298C411.71 238.324 408.965 239.465 406.1 239.47ZM422.37 187.47C422.231 188.502 421.689 189.437 420.862 190.07C420.036 190.703 418.993 190.984 417.96 190.85C406.928 189.418 395.716 191.112 385.6 195.74C385.133 195.957 384.627 196.079 384.112 196.101C383.597 196.122 383.083 196.042 382.599 195.864C382.116 195.687 381.672 195.416 381.292 195.067C380.913 194.718 380.607 194.298 380.39 193.83C380.173 193.363 380.051 192.857 380.03 192.342C380.008 191.827 380.089 191.313 380.266 190.83C380.443 190.346 380.714 189.902 381.063 189.523C381.412 189.144 381.833 188.837 382.3 188.62C393.764 183.342 406.482 181.394 419 183C419.514 183.069 420.008 183.239 420.456 183.499C420.904 183.76 421.295 184.107 421.608 184.519C421.922 184.932 422.15 185.403 422.281 185.904C422.412 186.405 422.442 186.927 422.37 187.44V187.47ZM482.72 239.47C480.582 239.472 478.491 238.84 476.712 237.653C474.933 236.467 473.545 234.779 472.726 232.804C471.906 230.829 471.691 228.655 472.107 226.557C472.523 224.46 473.551 222.533 475.063 221.02C476.574 219.507 478.5 218.477 480.597 218.059C482.695 217.641 484.869 217.854 486.845 218.672C488.82 219.49 490.509 220.876 491.698 222.653C492.886 224.431 493.52 226.522 493.52 228.66C493.517 231.525 492.379 234.271 490.354 236.298C488.33 238.324 485.584 239.465 482.72 239.47Z" fill="#FFC094"/>
<path d="M129 957.65C113.32 961.03 97.54 963.9 81.62 965.83C69.9 967.24 57.69 968.09 46.62 964.11C29.71 962.19 15.26 947.19 8.21002 930.18C1.16002 913.17 0.380023 894.27 0.400023 875.87C0.500023 775.78 22.27 676.87 51.03 581.01C57.49 559.5 64.45 537.8 76.86 519.09C95.86 490.45 126.05 471.21 156.96 456.2C185.53 442.35 215.55 431.3 243.02 415.49C241.346 419.162 239.897 422.933 238.68 426.78C236.41 434.03 235.37 441.17 234.35 448.64C233.99 451.23 234.1 454.07 235.73 456.11C237.12 457.87 239.38 458.69 241.5 459.42C254.833 463.96 268.26 468.294 281.78 472.42V472.51L242 474.59C238.89 474.76 235.25 475.23 233.71 477.94C233.043 479.398 232.774 481.005 232.93 482.6C233.16 488.898 233.741 495.177 234.67 501.41C241.722 554.579 252.549 607.179 267.07 658.81C279.72 703.81 304.77 747.22 335.6 782.64L335.71 782.75C334.92 783.48 334.11 784.19 333.3 784.89C327.139 790.391 320.469 795.293 313.38 799.53C307.324 802.94 300.712 805.249 293.85 806.35L291.78 867.18C291.52 874.78 291.28 882.38 291.02 889.97C290.97 891.31 290.92 892.65 290.88 893.97L290.43 907.37C290.32 910.37 291.14 915.66 288.43 917.87C286.98 919.08 283.75 919.26 281.89 919.73C279.44 920.35 276.98 920.98 274.52 921.59L245 929.05L186 944L181.27 945.19C163.88 949.52 146.51 953.89 129 957.65Z" fill="#17D79F"/>
<path d="M945.47 422.13C947.7 424.47 948.15 428.13 947.25 431.24C946.204 434.323 944.435 437.111 942.09 439.37C940.29 441.25 938.32 443.01 936.54 444.93C936.94 436.93 937.35 428.86 937.77 420.84C939.023 420.206 940.446 419.99 941.832 420.222C943.217 420.454 944.491 421.122 945.47 422.13Z" fill="#FFC094"/>
<path d="M434.37 913.34C431.47 913.41 428.55 913.46 425.66 913.52C416.993 913.673 408.303 913.76 399.59 913.78H386.59C384.83 913.78 383.12 914.04 381.65 912.86C380.43 911.86 380.15 910.33 379.93 908.86C379.61 906.86 379.3 904.86 379 902.8C378.37 898.74 377.77 894.68 377.17 890.62C377 889.52 376.85 888.41 376.69 887.31L377.9 886.88C390.9 882.25 402 873.79 414.56 868.27C427.74 862.47 443.01 859.58 457.19 857.46C463.903 856.467 470.657 855.77 477.45 855.37C481.36 855.15 485.71 854.82 488.45 852.17L488.71 852.42C487.297 863.207 485.817 873.98 484.27 884.74C483.47 890.25 482.67 895.74 481.83 901.24C481.45 903.71 481.35 906.18 479.95 908.31C479.168 909.474 478.145 910.455 476.95 911.19C475.72 911.907 474.3 912.231 472.88 912.12L461.88 912.54C454.57 912.8 447.23 913.03 439.88 913.21L434.37 913.34Z" fill="#A15A44"/>
<path d="M362.09 758.79C352.92 766.4 344.52 774.86 335.66 782.79L335.55 782.68C334.31 766.22 332.91 749.767 331.35 733.32C328.45 701.987 325 670.74 321 639.58C317.207 609.793 312.977 580.07 308.31 550.41C304.457 525.777 300.353 501.18 296 476.62C295.3 472.62 294.58 468.62 293.87 464.62C291.363 450.62 288.79 436.62 286.15 422.62C285.483 419.047 284.867 415.477 284.3 411.91C305.68 429.63 333.95 440.12 361.39 436.1C375.69 434.02 390.63 426.71 396.46 413.8C398.75 430.55 401.46 447.25 403.77 464C404.11 466.55 404.47 469.1 404.77 471.65C407.07 488.59 409.233 505.553 411.26 522.54C413.62 542.073 415.813 561.624 417.84 581.19C419.867 600.757 421.75 620.337 423.49 639.93C425.17 659.124 426.703 678.32 428.09 697.52V697.65H354.07V717H359.07C359.783 730.84 360.697 744.66 361.81 758.46L362.09 758.79Z" fill="#EBD7CF"/>
<path d="M529 1151.33C528.893 1174.5 528.783 1197.68 528.67 1220.85L133.8 1220.96V1151.43H306.67C314.31 1151.43 325.02 1151.43 331.52 1146.93C335.038 1144.29 337.611 1140.58 338.86 1136.36C379.32 1137.49 394.69 1137.7 435.23 1137.19C435.677 1138.8 436.29 1140.36 437.06 1141.85C442.72 1152.62 454.47 1151.44 464.87 1151.44H498.4C504.74 1151.44 522.67 1151.33 529 1151.33Z" fill="#002434"/>
<path d="M451 484.86C465.67 553.86 466.78 627.29 460 697.64H428.12V697.51C426.74 678.31 425.207 659.113 423.52 639.92C421.8 620.333 419.917 600.753 417.87 581.18C415.823 561.607 413.63 542.057 411.29 522.53C409.243 505.563 407.08 488.6 404.8 471.64H404.98C405.67 471.33 406.32 471.04 407.23 470.72C409.86 469.84 412.47 468.92 415.07 467.98C420.85 468.473 426.637 468.97 432.43 469.47C437.2 469.88 442.08 469.55 445.83 473.06C449 476.05 450.08 480.59 451 484.86Z" fill="#002434"/>
<path d="M946.62 333.4C948.007 334.512 949.114 335.934 949.854 337.55C950.594 339.167 950.945 340.934 950.88 342.71C950.702 346.282 949.439 349.715 947.26 352.55C945.499 354.881 943.446 356.975 941.15 358.78C941.657 349.774 942.187 340.774 942.74 331.78C944.145 331.999 945.476 332.555 946.62 333.4Z" fill="#FFC094"/>
<path d="M335.59 782.6C304.76 747.18 279.71 703.76 267.06 658.77C252.54 607.139 241.712 554.539 234.66 501.37C233.731 495.137 233.15 488.858 232.92 482.56C232.764 480.965 233.033 479.358 233.7 477.9C235.24 475.19 238.88 474.72 241.99 474.55L281.76 472.43V472.34C286.5 473.794 291.25 475.207 296.01 476.58C300.343 501.154 304.447 525.75 308.32 550.37C312.987 580.044 317.217 609.767 321.01 639.54C325.01 670.7 328.473 701.92 331.4 733.2C332.947 749.667 334.343 766.134 335.59 782.6Z" fill="#002434"/>
<path d="M271.52 301C271.228 301.061 270.928 301.085 270.63 301.07C268.38 301.07 266.57 299.87 264.87 298.47C253.37 289.05 244.34 276.93 236.71 264.17C230.515 253.821 225.165 242.989 220.71 231.78C218.71 226.78 217.62 220.2 214.71 215.63C212.47 212.07 208.82 209.41 206.49 205.75C204.067 201.892 202.141 197.742 200.76 193.4C197.54 183.4 196.84 172.75 196.43 162.24C195.43 135.74 202 106.79 217.37 85.1904C221.94 78.7704 228.23 73.8403 233.61 68.0603C265.61 33.6603 317.5 26.2504 338.05 21.2904C344.12 19.8304 350.24 18.5703 356.41 17.5503C381.33 13.4603 407.33 13.6104 431.33 21.4504C478.33 36.7904 513.33 83.4504 514.94 132.88C515.17 140.16 514.55 148 510 153.69C507.309 156.949 503.625 159.236 499.51 160.2C494.078 161.516 488.38 161.21 483.12 159.32C478.587 157.578 474.335 155.179 470.5 152.2C469.24 151.27 468.22 150.2 466.92 151.51C466.01 152.42 465.73 153.8 465.04 154.82C463.772 156.803 462.111 158.504 460.16 159.82C453.72 164.08 445.16 163.29 437.74 161.17C419.51 156 403.8 144.03 391.2 129.85C383.51 120.975 376.547 111.494 370.38 101.5C366.502 127.463 355.415 151.817 338.38 171.79C335.52 175.14 331.58 178.22 329.31 181.92C326.63 186.31 326.11 191.28 324.98 196.19C321.452 211.465 315.417 226.049 307.12 239.35C305.38 242.13 302.71 245.21 299.52 244.51C297.6 244.08 296.27 242.4 295.07 240.84C287.72 231.27 277.38 221.65 265.41 223.2C253.44 224.75 245.65 237.33 245.46 249.25C245.303 258.209 248.472 266.907 254.355 273.665C260.237 280.423 268.416 284.761 277.31 285.84C277.377 290.31 276.245 294.717 274.03 298.6C273.31 299.86 272.76 300.74 271.52 301Z" fill="#4D2B1D"/>
<path d="M947.52 386C946.98 386.57 946.4 387.12 945.81 387.65C943.71 389.56 941.42 391.26 939.25 393.11C939.59 386.71 939.923 380.3 940.25 373.88L940.7 366.03C942.378 365.347 944.225 365.191 945.994 365.584C947.762 365.977 949.369 366.9 950.6 368.23C953.02 371.02 953.38 375.23 952.19 378.72C951.191 381.462 949.596 383.949 947.52 386Z" fill="#FFC094"/>
<path d="M947.52 386C951.82 387.19 954.35 392.22 953.83 396.69C953.31 401.16 950.3 405.29 946.92 408.49C944.05 411.22 940.82 413.55 938.01 416.3C938.42 408.58 938.83 400.83 939.25 393.11C941.42 391.26 943.71 389.56 945.81 387.65C946.4 387.07 947 386.52 947.52 386Z" fill="#FFC094"/>
<path d="M293.51 1002.27C294.06 1002.72 293.96 1003.54 293.96 1004.15C293.96 1006.33 293.96 1008.5 293.96 1010.68C293.96 1015.03 293.89 1019.36 293.86 1023.68C293.793 1032.38 293.727 1041.07 293.66 1049.76C293.593 1058.45 293.523 1067.14 293.45 1075.83C293.45 1078.05 293.45 1080.26 293.45 1082.48C293.38 1090.55 293.14 1099.18 288.45 1105.76C286.366 1108.63 283.565 1110.9 280.327 1112.35C277.089 1113.79 273.528 1114.36 270 1114H203.91C200.4 1114.34 196.861 1113.76 193.645 1112.32C190.428 1110.87 187.644 1108.61 185.57 1105.76C180.91 1099.18 180.66 1090.55 180.57 1082.48C180.35 1055.58 180.133 1028.68 179.92 1001.77H182.29C184.48 1001.77 186.65 1001.77 188.83 1001.77H198.69C202.81 1001.77 206.92 1001.77 211.04 1001.77H225.04H239.79H254.5H268.3H280.35H291.7C292.26 1002 293.06 1001.88 293.51 1002.27Z" fill="#002434"/>
<path d="M156.56 1151.43H138.65C136.42 1151.43 132.65 1152.37 131.08 1150.43C129.96 1149.04 130.49 1147.27 130.43 1145.64C130.03 1136.43 129.5 1045.35 129.02 957.64C146.51 953.88 163.88 949.51 181.22 945.13L186 944L245 929.1L274.52 921.66C276.98 921.05 279.44 920.42 281.89 919.8C283.75 919.33 286.98 919.15 288.43 917.94C291.11 915.73 290.29 910.44 290.43 907.44L290.88 894.04C290.88 892.7 290.97 891.36 291.02 890.04C307.21 888.79 323.8 891.04 340.02 891.54V891.65C340.28 911.077 340.53 930.517 340.77 949.97C341.01 969.423 341.267 988.867 341.54 1008.3C341.793 1027.73 342.043 1047.17 342.29 1066.62C342.57 1087.83 343.61 1108.88 340.4 1129.9C340.075 1132.12 339.549 1134.31 338.83 1136.43C337.581 1140.65 335.008 1144.36 331.49 1147C324.99 1151.52 314.28 1151.5 306.64 1151.5H156.56V1151.43ZM294 1004.15C294 1003.54 294.1 1002.72 293.55 1002.27C293 1001.82 292.3 1001.99 291.76 1001.99H280.37H268.32H254.52H239.81H225.06H211.06C206.94 1001.99 202.83 1001.99 198.71 1001.99H188.85C186.67 1001.99 184.5 1001.99 182.31 1001.99H180C180.22 1028.89 180.437 1055.79 180.65 1082.7C180.7 1090.77 180.95 1099.4 185.65 1105.98C187.724 1108.83 190.508 1111.09 193.725 1112.54C196.941 1113.98 200.48 1114.56 203.99 1114.22H270C273.51 1114.56 277.049 1113.98 280.266 1112.54C283.482 1111.09 286.266 1108.83 288.34 1105.98C293 1099.4 293.24 1090.77 293.34 1082.7C293.34 1080.48 293.34 1078.27 293.34 1076.05C293.413 1067.38 293.483 1058.69 293.55 1049.98C293.617 1041.27 293.683 1032.57 293.75 1023.9C293.75 1019.55 293.82 1015.22 293.85 1010.9C293.93 1008.5 294 1006.33 294 1004.15Z" fill="#17D79F"/>
<path d="M434.37 913.34C434.37 935.813 434.347 958.28 434.3 980.74C434.3 1009.91 434.273 1039.08 434.22 1068.24C434.22 1081.22 434.22 1094.2 434.22 1107.18C434.22 1113.18 434.37 1119.26 434.14 1125.26C433.899 1129.27 434.277 1133.29 435.26 1137.19C394.72 1137.7 379.35 1137.49 338.89 1136.36C339.609 1134.24 340.135 1132.05 340.46 1129.83C343.67 1108.83 342.63 1087.76 342.35 1066.55C342.09 1047.11 341.84 1027.67 341.6 1008.23C341.36 988.79 341.103 969.347 340.83 949.9C340.59 930.46 340.34 911.02 340.08 891.58V891.47C352.58 891.88 364.88 891.28 376.67 887.33C376.83 888.43 376.98 889.54 377.15 890.64C377.75 894.7 378.35 898.76 378.98 902.82C379.28 904.82 379.59 906.82 379.91 908.88C380.13 910.33 380.41 911.88 381.63 912.88C383.1 914.06 384.81 913.8 386.57 913.8H399.57C408.237 913.8 416.927 913.713 425.64 913.54C428.55 913.46 431.47 913.41 434.37 913.34Z" fill="#EBD7CF"/>
<path d="M278.9 376.39L279.6 376.3C279.6 376.59 279.67 376.88 279.7 377.16C281.05 388.83 282.44 400.37 284.3 411.92C284.867 415.494 285.483 419.064 286.15 422.63C288.777 436.63 291.35 450.63 293.87 464.63C294.58 468.63 295.3 472.63 296 476.63C291.24 475.25 286.49 473.837 281.75 472.39C268.25 468.297 254.823 463.964 241.47 459.39C239.35 458.66 237.09 457.84 235.7 456.08C234.07 454.08 233.96 451.2 234.32 448.61C235.32 441.14 236.38 434 238.65 426.75C239.871 422.913 241.324 419.152 243 415.49C250.51 399 262.54 385.19 278.9 376.39Z" fill="#002434"/>
<path d="M496.16 786.94C495.93 789.43 495.68 791.94 495.42 794.36C494.034 793.122 492.401 792.192 490.63 791.63C489.447 791.268 488.231 791.024 487 790.9V790.74C488.689 790.698 490.354 790.322 491.898 789.636C493.442 788.95 494.836 787.966 496 786.74L496.16 786.94Z" fill="#664D48"/>
<path d="M535.92 1001.93C535.96 1015.42 535.933 1028.92 535.84 1042.44C535.727 1058.19 535.503 1073.95 535.17 1089.7C534.99 1097.83 534.773 1105.95 534.52 1114.08H533.4H489.73C486.22 1114.42 482.681 1113.84 479.464 1112.4C476.248 1110.95 473.464 1108.69 471.39 1105.84C466.73 1099.26 466.48 1090.63 466.39 1082.56C466.17 1055.66 465.953 1028.76 465.74 1001.85L535.43 1001.98L535.92 1001.93Z" fill="#002434"/>
<path d="M363.79 757.4L362.09 758.79L361.83 758.48C360.73 744.66 359.817 730.84 359.09 717.02H501.43C500.71 730.88 499.797 744.713 498.69 758.52C498.33 762.85 497.98 767.17 497.58 771.52C495.115 768.158 491.594 765.718 487.58 764.59C481.58 762.7 475.14 763.01 468.87 763.42C458.53 764.087 448.197 765.003 437.87 766.17C432.71 766.75 427.567 767.38 422.44 768.06C419.92 768.4 417.44 768.76 414.9 769.06C413.25 769.31 410.42 770.32 409.6 768.12C408.78 765.92 413.51 763.57 415.04 762.55C417.471 760.951 420.003 759.511 422.62 758.24C427.787 755.73 433.204 753.769 438.78 752.39C450.96 749.33 463.58 748.58 476.01 746.87C479.73 746.36 483.53 745.74 486.82 743.93C490.11 742.12 492.82 738.84 493 735.08C493.18 730.99 490.28 727.25 486.67 725.3C483.06 723.35 478.87 722.86 474.79 722.56C434.734 719.877 395.128 732.308 363.79 757.4Z" fill="#A15A44"/>
<path d="M489 840.41C485.64 835.63 480.51 834.98 475.18 834.74C468.367 834.44 461.547 834.393 454.72 834.6H453.31C447.443 834.807 441.583 835.2 435.73 835.78C432.81 836.07 429.89 836.39 426.98 836.78C425.32 837 423.25 837.78 421.91 836.41C418.03 832.52 430.38 828.48 432.64 827.49C437.549 825.393 442.598 823.638 447.75 822.24C460.17 818.82 473 817.03 485.38 813.5C488.356 812.708 491.19 811.456 493.78 809.79C492.593 820.597 491.333 831.38 490 842.14C489.723 841.533 489.388 840.953 489 840.41Z" fill="#A15A44"/>
<path d="M419 183C420.034 183.133 420.974 183.671 421.611 184.496C422.249 185.321 422.533 186.366 422.4 187.4C422.267 188.435 421.729 189.374 420.904 190.011C420.079 190.649 419.034 190.933 418 190.8C406.968 189.368 395.756 191.062 385.64 195.69C385.173 195.907 384.667 196.029 384.152 196.051C383.637 196.072 383.123 195.992 382.639 195.814C382.156 195.637 381.712 195.366 381.332 195.017C380.953 194.668 380.647 194.248 380.43 193.78C380.213 193.313 380.091 192.807 380.07 192.292C380.048 191.777 380.129 191.263 380.306 190.78C380.483 190.296 380.754 189.852 381.103 189.473C381.452 189.093 381.873 188.787 382.34 188.57C393.797 183.316 406.5 181.386 419 183Z" fill="#3D2217"/>
<path d="M404.8 471.66C404.47 469.11 404.11 466.56 403.8 464.01C401.5 447.26 398.8 430.56 396.49 413.81C396.13 411.26 395.79 408.72 395.49 406.17C394.34 397.17 393.08 388.27 392.34 379.27C400.209 383.363 407.397 388.649 413.65 394.94C420.09 401.43 423.65 410.65 428.12 418.62C428.7 419.62 429.27 420.68 429.83 421.71C432.25 426.16 434.59 430.56 437.25 434.88C440.231 439.524 442.626 444.518 444.38 449.75C445.82 454.47 441.23 457.26 437.44 458.94C430.11 462.21 422.67 465.2 415.13 467.94C412.53 468.88 409.92 469.8 407.29 470.68C406.38 471 405.73 471.29 405.04 471.6L404.8 471.66Z" fill="#002434"/>
<path d="M486.901 238.586C492.406 236.288 495.005 229.963 492.707 224.459C490.409 218.955 484.084 216.356 478.58 218.654C473.075 220.952 470.476 227.277 472.774 232.781C475.072 238.285 481.397 240.884 486.901 238.586Z" fill="#3D2217"/>
<path d="M416.795 230.097C417.597 224.187 413.456 218.745 407.545 217.943C401.635 217.141 396.193 221.282 395.391 227.192C394.589 233.103 398.73 238.544 404.64 239.347C410.551 240.149 415.992 236.008 416.795 230.097Z" fill="#3D2217"/>
<path d="M310.14 324.35C310.14 324.35 325.53 390.65 396.14 414.44C396.24 414.23 396.37 414.02 396.47 413.81C396.11 411.26 395.77 408.72 395.47 406.17C394.32 397.17 393.06 388.27 392.32 379.27C392.26 378.57 392.2 377.89 392.15 377.19C392.01 375.19 391.863 373.19 391.71 371.19V370.64C385.975 370.235 380.287 369.328 374.71 367.93C349.07 361.48 326.42 345.2 310.14 324.35Z" fill="#FA886C"/>
<path d="M532.17 751L532.06 751.55C532.5 775.683 532.947 799.813 533.4 823.94C542.84 840.49 552.95 856.6 566.04 870.36C577.88 882.83 592.78 893.24 608.95 898.67C569.44 865.26 543.73 791.07 532.17 751Z" fill="#002434"/>
<path d="M831 607C827.14 603.12 823.23 599.27 819.32 595.44C808.94 585.31 798.45 575.28 788.26 564.98C769.16 545.7 782.7 559.86 756.88 532.64C754.5 536.52 751.36 540.75 745.97 550.51C715.08 606.51 680.28 660.09 644.97 713.34L644.85 713.26C622.95 665.267 602.21 616.81 582.63 567.89C569.22 534.39 555.63 499.52 529.5 474.6C517.66 463.27 503.64 454.45 489.2 446.71C470.263 436.577 450.449 428.176 430 421.61L429.82 421.71C432.24 426.16 434.58 430.56 437.24 434.88C440.221 439.524 442.615 444.519 444.37 449.75C445.81 454.47 441.22 457.26 437.43 458.94C430.1 462.21 422.66 465.2 415.12 467.94C420.9 468.434 426.687 468.93 432.48 469.43C437.25 469.84 442.13 469.51 445.88 473.02C449.05 476.02 450.13 480.56 451.04 484.83C465.71 553.83 466.82 627.26 460.04 697.61H507.67V717H501.44C500.72 730.86 499.807 744.694 498.7 758.5C498.34 762.83 497.99 767.15 497.59 771.5C498.696 773.128 499.383 775.003 499.59 776.96C499.73 778.758 499.483 780.565 498.865 782.259C498.248 783.953 497.274 785.495 496.01 786.78L496.16 786.93C495.93 789.42 495.68 791.93 495.42 794.35C496.534 795.241 497.433 796.372 498.049 797.658C498.666 798.945 498.984 800.354 498.98 801.78C498.84 805.23 496.71 807.85 493.81 809.78C492.603 820.594 491.333 831.38 490 842.14C491.37 845.27 491.18 849.14 489 851.67C488.83 851.85 488.67 852.03 488.49 852.19L488.75 852.44C487.337 863.227 485.857 874 484.31 884.76C483.51 890.27 482.71 895.76 481.87 901.26C481.49 903.73 481.39 906.2 479.99 908.33C479.208 909.494 478.185 910.476 476.99 911.21C475.76 911.927 474.34 912.252 472.92 912.14L461.92 912.56C454.61 912.82 447.27 913.05 439.92 913.23L434.36 913.34C434.36 935.814 434.337 958.28 434.29 980.74C434.29 1009.91 434.263 1039.08 434.21 1068.24C434.21 1081.22 434.21 1094.2 434.21 1107.18C434.21 1113.18 434.36 1119.26 434.13 1125.26C433.889 1129.27 434.267 1133.29 435.25 1137.19C435.697 1138.8 436.31 1140.36 437.08 1141.85C442.74 1152.62 454.49 1151.44 464.89 1151.44H526.54C528.02 1151.44 529.66 1151.69 531.06 1151.15C533.22 1150.33 533.3 1147.94 533.38 1145.93C533.5 1142.93 533.64 1139.93 533.75 1136.93C534.05 1129.32 534.313 1121.7 534.54 1114.07H533.42H489.73C486.22 1114.41 482.681 1113.83 479.464 1112.39C476.248 1110.94 473.464 1108.68 471.39 1105.83C466.73 1099.25 466.48 1090.62 466.39 1082.55C466.17 1055.65 465.953 1028.75 465.74 1001.84L535.43 1001.97H535.88C535.88 999.72 535.88 997.47 535.88 995.21C535.82 979.444 535.69 963.677 535.49 947.91C535.29 932.144 535.053 916.384 534.78 900.63C534.52 884.964 534.237 869.297 533.93 853.63C533.75 843.744 533.567 833.86 533.38 823.98C532.933 799.847 532.487 775.717 532.04 751.59L532.15 751.04C543.71 791.14 569.42 865.33 608.93 898.71C619.296 902.322 630.35 903.523 641.25 902.22C661.9 899.56 680.25 887.14 694.19 871.63C708.13 856.12 718.12 837.63 727.99 819.29C738.15 800.43 748.313 781.567 758.48 762.7C767.67 745.65 776.86 728.58 785.87 711.43C795.12 693.84 804.17 676.14 812.87 658.27C817.21 649.337 821.437 640.337 825.55 631.27C827.623 626.764 829.653 622.227 831.64 617.66C833.2 614 834.12 610.14 831 607Z" fill="#17D79F"/>
<path d="M899.15 509.43H898.67C885.057 509.43 871.45 509.637 857.85 510.05C853.85 510.16 849.85 510.23 845.85 510.31C860.717 514.31 875.753 517.54 890.96 520C894.113 516.826 896.864 513.276 899.15 509.43Z" fill="#FA886C"/>
<path d="M845.82 510.31C844.02 510.31 842.21 510.37 840.41 510.43C834.02 510.62 827.67 509.83 823.23 504.65C820.23 501.1 818.93 496.35 818.82 491.7C818.73 487.7 819.95 483.9 820.06 479.96C820.14 477.1 819.56 474.41 819.78 471.49C820.367 463.324 821.033 455.147 821.78 446.96C823.153 431.834 824.767 416.72 826.62 401.62C827.81 400.2 829.1 398.86 830.35 397.5C837.96 389.267 844.768 380.326 850.68 370.8C853.3 366.57 855.82 362.01 856.07 357.03C856.32 352.05 853.59 346.58 848.78 345.26C842.9 343.63 837.38 348.48 833.24 352.94C831.24 355.05 829.33 357.18 827.4 359.3C820.96 366.374 814.627 373.524 808.4 380.75C799.91 390.62 791.52 400.75 785.57 412.34C770.24 442.16 772.63 477.69 764.74 510.25C761.5 523.59 759.74 527.82 756.85 532.59C782.67 559.81 769.13 545.65 788.23 564.93C798.42 575.23 808.91 585.26 819.29 595.39L819.37 595.31C829.01 577.56 842.61 561.21 857.21 547.41C867.64 537.56 880.91 530.29 890.94 520C875.753 517.514 860.713 514.284 845.82 510.31Z" fill="#FFC094"/>
<path d="M291.73 867.18C291.47 874.78 291.23 882.38 290.97 889.97C296.491 889.58 302.029 889.489 307.56 889.7C301.557 864.059 296.884 838.124 293.56 812C292.967 830.4 292.357 848.793 291.73 867.18Z" fill="#FA886C"/>
<path d="M495.42 794.36C494.034 793.122 492.401 792.192 490.63 791.63C489.447 791.268 488.231 791.024 487 790.9V790.74C488.689 790.698 490.354 790.322 491.898 789.636C493.442 788.95 494.836 787.966 496 786.74C497.264 785.454 498.238 783.913 498.855 782.219C499.473 780.525 499.72 778.718 499.58 776.92C499.374 774.963 498.687 773.088 497.58 771.46C495.115 768.098 491.594 765.658 487.58 764.53C481.58 762.64 475.14 762.95 468.87 763.36C458.53 764.027 448.197 764.944 437.87 766.11C432.71 766.69 427.567 767.32 422.44 768C419.92 768.34 417.44 768.7 414.9 769C413.25 769.25 410.42 770.26 409.6 768.06C408.78 765.86 413.51 763.51 415.04 762.49C417.471 760.891 420.003 759.452 422.62 758.18C427.787 755.67 433.204 753.71 438.78 752.33C450.96 749.27 463.58 748.52 476.01 746.81C479.73 746.3 483.53 745.68 486.82 743.87C490.11 742.06 492.82 738.78 493 735.02C493.18 730.93 490.28 727.19 486.67 725.24C483.06 723.29 478.87 722.8 474.79 722.5C434.74 719.806 395.134 732.223 363.79 757.3L362.09 758.69C352.92 766.3 344.52 774.76 335.66 782.69C334.87 783.42 334.06 784.13 333.25 784.83C327.089 790.331 320.419 795.233 313.33 799.47C307.274 802.88 300.662 805.189 293.8 806.29C293.73 808.17 293.67 810.05 293.6 811.94C296.924 838.064 301.597 863.999 307.6 889.64C318.42 889.98 329.31 891.07 340.05 891.41C352.55 891.82 364.85 891.22 376.64 887.27L377.85 886.84C390.85 882.21 401.95 873.75 414.51 868.23C427.69 862.43 442.96 859.54 457.14 857.42C463.853 856.427 470.607 855.73 477.4 855.33C481.31 855.11 485.66 854.78 488.4 852.13C488.58 851.97 488.74 851.79 488.91 851.61C491.14 849.07 491.33 845.21 489.91 842.08C489.633 841.473 489.298 840.894 488.91 840.35C485.55 835.57 480.42 834.92 475.09 834.68C468.277 834.38 461.457 834.334 454.63 834.54H453.22C447.353 834.747 441.493 835.14 435.64 835.72C432.72 836.01 429.8 836.33 426.89 836.72C425.23 836.94 423.16 837.72 421.82 836.35C417.94 832.46 430.29 828.42 432.55 827.43C437.459 825.333 442.508 823.579 447.66 822.18C460.08 818.76 472.91 816.97 485.29 813.44C488.266 812.648 491.1 811.396 493.69 809.73C496.59 807.73 498.69 805.14 498.86 801.73C498.869 800.323 498.566 798.932 497.971 797.658C497.376 796.383 496.504 795.256 495.42 794.36Z" fill="#FFC094"/>
<path d="M163.68 675.07L158.19 823.64L133.21 826.3L163.68 675.07Z" fill="#002434"/>
<path d="M831.85 403.94L832.17 395.48C831.57 396.16 830.97 396.84 830.35 397.48C829.1 398.84 827.81 400.18 826.62 401.6C825.72 408.933 824.877 416.287 824.09 423.66C826.243 421.36 828.337 419.003 830.37 416.59C830.843 412.397 831.337 408.18 831.85 403.94Z" fill="#292710"/>
<path d="M941.16 278.46C933.56 268.27 918.98 271.54 908.11 272.39C895.51 273.364 882.923 274.443 870.35 275.63C861.72 276.45 849.56 276.02 842.6 281.84C838.713 285.306 835.87 289.787 834.39 294.78C830.79 305.68 830.9 317.78 829.94 329.1C829.1 339.167 828.253 349.233 827.4 359.3C829.33 357.18 831.28 355.05 833.24 352.94L833.84 352.31L834.14 344.52L835.39 329.52C835.62 326.9 835.78 324.24 835.95 321.57C836.48 313.03 837.03 304.2 839.59 296.44C840.755 292.426 843.008 288.813 846.1 286C850.42 282.39 858.51 281.88 865.66 281.42C867.48 281.3 869.23 281.19 870.85 281.03C884.41 279.77 889.85 278.71 901.7 277.8C903.24 277.68 904.85 277.51 906.51 277.34C917.51 276.2 925.58 275.85 929.94 281.69C932.46 285.06 932.54 288.5 932.46 294.27C932.46 295.27 932.46 296.27 932.46 297.36C932.46 302.81 932.04 308.53 931.6 314.06C931.38 316.78 931.17 319.49 931.01 322.19C930.85 324.89 930.68 327.53 930.53 330.19L930.46 331.39C929.907 340.397 929.377 349.397 928.87 358.39C928.72 360.8 928.58 363.22 928.46 365.61L928.01 373.47C927.67 379.57 927.337 385.66 927.01 391.74V392.74C926.637 399.473 926.273 406.214 925.92 412.96L925.53 420.53C925.11 428.53 924.7 436.567 924.3 444.64V444.77C923.907 452.63 923.527 460.49 923.16 468.35C923.07 470.21 922.99 472.08 922.91 473.94C922.77 477.18 922.63 480.42 922.44 483.67L922.34 485.51C922.269 488.977 921.934 492.434 921.34 495.85C920.915 498.205 919.744 500.361 918 502C915.52 504.13 911.63 504.37 908.8 504.19C904.2 503.9 900.94 503.92 896.45 503.95H893.16C879.56 503.95 871.24 504.17 857.66 504.57C855.03 504.64 852.4 504.69 849.78 504.74C846.58 504.74 843.38 504.85 840.21 504.95C833.61 505.16 829.88 504.03 827.36 501.09C825.289 498.346 824.197 494.987 824.26 491.55C824.285 489.734 824.473 487.923 824.82 486.14C825.178 484.158 825.402 482.153 825.49 480.14C825.514 478.675 825.457 477.209 825.32 475.75C825.191 474.474 825.154 473.191 825.21 471.91C825.77 464.06 826.44 455.84 827.21 447.47C828.12 437.4 829.21 427.07 830.35 416.63C828.35 419.037 826.257 421.393 824.07 423.7C823.23 431.46 822.46 439.22 821.76 446.98C821.02 455.16 820.353 463.337 819.76 471.51C819.54 474.43 820.12 477.12 820.04 479.98C819.93 483.92 818.71 487.71 818.8 491.72C818.91 496.37 820.19 501.12 823.21 504.67C827.65 509.85 834 510.67 840.39 510.45C846.19 510.26 852.01 510.23 857.83 510.07C871.43 509.67 885.037 509.464 898.65 509.45H899.13C904.5 509.45 909.95 509.33 915.3 509.67C919.86 509.96 924.84 509.25 928.43 506.16C931.045 503.745 932.8 500.543 933.43 497.04C934.174 492.745 934.592 488.399 934.68 484.04C934.98 478.93 935.16 473.8 935.4 468.69C935.767 460.79 936.15 452.893 936.55 445C936.95 437 937.36 428.93 937.78 420.91C937.87 419.37 937.93 417.84 938.02 416.32C938.43 408.6 938.84 400.85 939.26 393.13C939.6 386.73 939.933 380.32 940.26 373.9L940.71 366.05C940.83 363.64 940.97 361.25 941.12 358.85C941.627 349.843 942.157 340.843 942.71 331.85C942.89 328.79 943.06 325.71 943.25 322.65C943.76 314.29 944.77 305.8 944.72 297.44C944.71 290.56 945.57 284.35 941.16 278.46Z" fill="#292710"/>
<path d="M1280.54 52.1601C1251.47 69.7001 1233.54 104.16 1235.82 138.05C1236.31 145.27 1237.71 152.61 1241.41 158.83C1245.11 165.05 1251.41 170.06 1258.61 170.77C1266.61 171.57 1274.06 167.23 1281.19 163.55C1290.03 158.99 1299.36 155.2 1309.19 153.55C1319.02 151.9 1329.33 152.42 1338.51 156.27C1345.77 159.27 1352.51 164.43 1360.38 164.74C1368.25 165.05 1375.6 160.28 1380.16 153.91C1384.72 147.54 1386.87 139.77 1388.24 132.06C1390.62 118.61 1390.92 104.65 1387.71 91.3701C1384.5 78.0901 1377.71 65.5101 1367.32 56.6001C1358 48.6001 1346.2 43.7801 1334.1 41.6001C1322 39.4201 1309.58 39.7601 1297.36 41.1101L1280.54 52.1601Z" fill="#453D3F"/>
<path d="M1394.58 208.78C1396.64 208.778 1398.65 209.387 1400.37 210.53C1402.08 211.674 1403.42 213.299 1404.21 215.202C1404.99 217.104 1405.2 219.198 1404.8 221.219C1404.4 223.239 1403.41 225.095 1401.95 226.551C1400.49 228.008 1398.64 228.999 1396.62 229.401C1394.6 229.802 1392.5 229.595 1390.6 228.806C1388.7 228.017 1387.07 226.681 1385.93 224.967C1384.79 223.254 1384.18 221.24 1384.18 219.18C1384.18 216.423 1385.28 213.779 1387.23 211.829C1389.18 209.879 1391.82 208.783 1394.58 208.78Z" fill="#211D1E"/>
<path d="M1382.59 170.75C1380.38 171.82 1377.85 172.33 1376.22 169.75C1375.72 168.855 1375.46 167.846 1375.46 166.82C1375.46 165.794 1375.72 164.785 1376.22 163.89C1376.24 163.821 1376.28 163.756 1376.33 163.7C1378.34 166.134 1380.43 168.484 1382.59 170.75Z" fill="#211D1E"/>
<path d="M1439 978.72C1444.21 1030.97 1449.43 1083.22 1454.64 1135.46H1454.46C1429.94 1119.66 1414.72 1092.32 1407.56 1064.05C1400.56 1036.49 1400.41 1007.74 1400.47 979.3L1439 978.72Z" fill="#17D79F"/>
<path d="M1234.7 726.29C1235 751.44 1228.07 776.42 1209.32 794.7C1203.64 800.25 1195.96 804.27 1188.19 805.09C1184.8 760.19 1182.53 715.227 1181.4 670.2C1180.8 646.674 1180.51 623.144 1180.53 599.61C1180.59 594.91 1181.07 590.225 1181.97 585.61C1183.32 596.61 1187.53 606.02 1190.9 616.49C1193.89 626.133 1198.03 635.377 1203.25 644.02C1213.81 661.33 1227.25 677.7 1231.51 698.02C1233.49 707.317 1234.56 716.786 1234.7 726.29Z" fill="#17D79F"/>
<path d="M1430.4 617.13L1410.97 617.85L1391.53 618.58C1390.46 618.58 1389.24 618.58 1387.95 618.49C1387.82 616.31 1387.7 614.12 1387.59 611.94C1387.48 609.76 1386.23 605.75 1388.41 604.48C1389.45 603.999 1390.6 603.795 1391.74 603.89L1407.58 603.81C1411.64 603.81 1417.88 602.52 1421.19 605.42C1424.5 608.32 1427.52 613.27 1430.4 617.13Z" fill="white"/>
<path d="M1411.13 161.46C1411.3 162.248 1411.24 163.068 1410.97 163.825C1410.69 164.583 1410.21 165.247 1409.57 165.74C1407.57 167.25 1404.57 166.18 1402.25 166.02C1399.63 165.824 1397 165.945 1394.41 166.38C1390.6 167.029 1386.92 168.332 1383.55 170.23C1383.24 170.41 1382.92 170.59 1382.55 170.75C1380.39 168.49 1378.3 166.157 1376.28 163.75C1378.58 159.62 1384.47 158.12 1388.76 157.06C1393.95 155.778 1399.35 155.682 1404.58 156.78C1407.39 157.34 1410.5 158.7 1411.13 161.46Z" fill="#211D1E"/>
<path d="M1260.09 442.91C1256.95 427.1 1258.52 410.53 1259.29 394.33C1259.45 390.86 1259.58 387.39 1259.66 383.94C1260.38 355.029 1258.47 326.112 1253.93 297.55C1251.67 283.283 1248.76 269.137 1245.19 255.11C1243.79 249.58 1243.12 242.5 1239.72 237.89C1236.85 233.98 1232.98 231.5 1228.8 229.16C1224 226.354 1219.47 223.128 1215.24 219.52C1206.73 212.29 1199.44 203.749 1193.62 194.22C1182.14 175.45 1176.41 152.95 1179.06 130.98C1181.71 109.01 1192.55 88.6101 1208.06 73.1101C1224.45 56.7801 1243.58 48.6501 1265.87 44.4601C1268.99 43.8701 1273.19 42.5701 1275.59 40.4601C1315.13 5.56011 1372.5 -7.94986 1423.46 5.64014C1474.42 19.2301 1517.46 59.5301 1534.32 109.49C1548.54 151.49 1544.96 198.09 1559.78 239.94C1567.01 260.33 1578.39 278.94 1588.12 298.28C1597.85 317.62 1606.12 338.38 1606.27 360.01C1606.42 379.44 1598.95 399.77 1583.95 411.73C1571.18 408.397 1558.08 406.528 1544.89 406.16C1547.11 423.16 1542.49 444.29 1529.3 455.24C1524.36 459.364 1518.62 462.427 1512.45 464.24C1502.84 467 1492.55 466.33 1484.04 460.52C1469.68 450.7 1465.09 433.99 1465.28 417.09C1465.43 403.92 1468.8 389.86 1471.13 376.92C1473.46 363.98 1476.03 351.36 1477.89 338.48C1479.75 325.6 1479.77 312.48 1480.89 299.63C1481.64 290.87 1483.06 272.15 1479.75 264.91L1479.94 264.83C1492.65 268.19 1509.19 255.52 1516.67 245.5C1522.81 237.27 1525.01 225.01 1519.88 215.78C1509.4 196.93 1479.26 201.28 1476.21 222.1C1470.11 219.22 1468.94 212.1 1464.39 207.1C1460.48 202.83 1453.33 199.84 1447.73 195.75C1435.56 196.89 1423.13 195.53 1413.51 191.96C1401.23 187.41 1391.24 179.84 1382.51 170.76C1382.84 170.6 1383.16 170.42 1383.51 170.24C1386.88 168.342 1390.56 167.039 1394.37 166.39C1396.96 165.955 1399.59 165.834 1402.21 166.03C1404.5 166.19 1407.52 167.26 1409.53 165.75C1410.17 165.257 1410.65 164.593 1410.93 163.836C1411.2 163.078 1411.26 162.258 1411.09 161.47C1410.46 158.71 1407.35 157.35 1404.58 156.76C1399.35 155.662 1393.95 155.758 1388.76 157.04C1384.47 158.1 1378.58 159.6 1376.28 163.73C1372.28 158.87 1368.48 153.73 1364.86 148.54C1350.75 128.24 1340.52 105.86 1325.41 86.2401C1314.01 71.4301 1299.62 56.5801 1280.48 68.3101C1266.61 76.8201 1256.03 93.7701 1251.78 109.25C1241.68 146.07 1254.61 180.41 1258.13 216.91C1261.81 255.09 1270.28 295.26 1298.2 323.91C1319.93 346.19 1349.56 359.6 1380.83 359.52C1383.49 359.52 1386.18 359.4 1388.89 359.17C1389.84 368.19 1390.79 377.21 1391.75 386.23C1392.02 388.96 1392.31 391.67 1392.61 394.39H1392.47C1370.27 415.56 1357.83 443.67 1337.47 466.2C1333.14 471.06 1328.13 475.258 1322.58 478.66C1315.58 482.86 1307.78 485.37 1299.68 484.88C1281.24 483.76 1266.83 467.17 1261.68 449.43C1261 447.26 1260.51 445.1 1260.09 442.91Z" fill="#453D3F"/>
<path d="M1098.57 585.35C1096.7 582.801 1094.57 580.455 1092.21 578.35C1071.78 559.794 1057.86 535.156 1052.52 508.08C1052.06 505.7 1051.58 503.34 1051.12 500.97L1052.06 500.78C1055.57 489.748 1061.14 479.481 1068.47 470.52C1083.56 451.94 1105.6 438.89 1129.37 435.72C1133.89 435.12 1139.1 435.08 1142.26 438.37C1154.83 451.44 1120.87 461.17 1113.73 465.21C1098.71 473.698 1086.11 485.884 1077.12 500.61C1100.2 485.781 1127.45 478.769 1154.82 480.61C1159.57 480.95 1165.27 482.31 1166.69 486.86C1167.82 490.47 1165.36 494.42 1162.05 496.29C1156.79 499.29 1149.05 499.02 1143.25 499.81C1122.16 502.73 1102.71 508.93 1086.93 523.15C1108.07 516.207 1130.44 513.822 1152.57 516.15C1156.34 516.55 1160.81 517.66 1161.96 521.25C1162.96 524.33 1160.72 527.68 1157.84 529.12C1154.96 530.56 1151.6 530.62 1148.39 530.76C1128.35 531.604 1108.74 536.804 1090.92 546C1091.01 547.237 1091.43 548.425 1092.15 549.435C1092.87 550.444 1093.86 551.235 1095 551.72C1097.85 552.96 1101.1 552.61 1104.2 552.24L1180.98 542.86C1182.97 542.647 1184.94 542.33 1186.89 541.91V542.18C1189.72 557.28 1184.59 571.18 1181.89 585.59C1180.99 590.204 1180.51 594.89 1180.45 599.59C1180.45 623.117 1180.74 646.647 1181.32 670.18C1182.46 715.193 1184.72 760.157 1188.11 805.07C1184 805.558 1179.84 805.007 1176 803.47C1162.8 798.07 1157.46 782.6 1153.61 768.87L1124.99 666.87C1120.26 650.063 1115.54 633.257 1110.83 616.45C1107.64 604.8 1105.2 594.41 1098.57 585.35Z" fill="#FFC094"/>
<path d="M1439 978.72L1400.47 979.32L1304.47 980.78C1304.09 967.087 1303.72 953.397 1303.35 939.71C1299.53 798.71 1295.82 656.41 1316.26 517.24C1380.98 523.094 1446.22 517.776 1509.13 501.52C1506.68 539.14 1506.96 576.57 1507.79 614.22C1502.79 614.42 1497.79 614.607 1492.79 614.78L1450.66 616.36L1430.41 617.13C1427.53 613.27 1424.63 608.42 1421.2 605.42C1417.77 602.42 1411.65 603.79 1407.59 603.81L1391.75 603.89C1390.61 603.795 1389.46 603.998 1388.42 604.48C1386.24 605.75 1387.49 609.91 1387.6 611.94C1387.71 613.97 1387.83 616.31 1387.96 618.49C1383.73 618.26 1378.75 617.91 1375.96 620.57C1374.09 622.546 1372.97 625.122 1372.82 627.84C1372.69 630.523 1372.9 633.212 1373.46 635.84C1373.6 637.07 1373.96 638.266 1374.52 639.37C1374.89 639.942 1375.39 640.421 1375.97 640.768C1376.56 641.115 1377.22 641.321 1377.9 641.37H1379.51L1383.79 641.21C1387.6 674.49 1391.41 707.77 1395.21 741.05C1397.11 757.57 1399 774.087 1400.89 790.6C1401.83 798.773 1402.76 806.94 1403.69 815.1C1404.16 819.18 1404.69 823.26 1405.1 827.34C1405.51 831.42 1406.26 834.06 1410.88 834.25C1416.73 834.5 1422.64 834.25 1428.51 834.25H1491.41C1494.41 834.25 1499.41 835.25 1501.41 832.66C1505.59 827.43 1504.57 818.46 1505.33 812.25C1506.33 804.44 1507.24 796.65 1508.21 788.84L1508.82 788.29C1509.76 789.35 1510.72 790.39 1511.72 791.4C1513.31 853.473 1515.16 915.537 1517.28 977.59L1439 978.72Z" fill="#002434"/>
<path d="M1584 411.71C1593.98 414.258 1603.79 417.424 1613.38 421.19C1649.38 435.25 1681.88 457.98 1708.33 486.07C1748.17 528.38 1774.38 581.14 1795.33 634.82C1817.76 692.4 1840.33 749.16 1864.33 806.17C1872.56 825.73 1876.14 837.85 1874.7 858.75C1873.49 874.948 1869.97 890.89 1864.24 906.09C1842.42 965.02 1786.4 1023.61 1718.65 1017.31C1711.57 1016.64 1704.55 1015.44 1697.65 1013.72C1649.47 1001.94 1606.84 968.39 1557.85 958.08C1559.46 957.234 1560.92 956.133 1562.17 954.82C1571.84 945.06 1574.09 932.9 1575.17 919.7C1577.94 884.811 1578.51 849.782 1576.89 814.82C1576.27 801.6 1575.35 788.4 1574.12 775.22C1573.06 763.91 1573.12 750.96 1569.43 740.22L1569.49 740.13C1563.57 735.875 1558.46 730.587 1554.42 724.52C1544.05 708.64 1533.76 692.81 1521.9 678.1C1523.61 664.1 1525.33 650.1 1527.05 636.1C1530.54 636.04 1533.79 635.32 1534.99 631.59C1535.47 629.824 1535.69 627.999 1535.66 626.17C1535.82 623.886 1535.69 621.592 1535.27 619.34C1534.85 617.069 1533.57 615.044 1531.71 613.68C1529.11 611.94 1527.08 613.19 1524.45 613.68C1521.1 614.25 1517.35 613.94 1513.95 614.07L1507.95 614.29C1507.12 576.64 1506.84 539.21 1509.29 501.59C1510.08 489.17 1511.21 476.727 1512.67 464.26C1518.84 462.447 1524.58 459.384 1529.52 455.26C1542.71 444.26 1547.33 423.17 1545.11 406.18C1558.24 406.548 1571.29 408.403 1584 411.71Z" fill="#002434"/>
<path d="M1388 618.49C1389.29 618.56 1390.51 618.63 1391.58 618.58L1411.02 617.85L1430.45 617.13L1450.7 616.36L1492.83 614.78C1497.83 614.613 1502.83 614.427 1507.83 614.22L1513.83 614C1517.23 613.87 1520.98 614.18 1524.33 613.61C1526.96 613.16 1528.99 611.91 1531.59 613.61C1533.45 614.974 1534.73 616.998 1535.15 619.27C1535.57 621.521 1535.7 623.816 1535.54 626.1C1535.57 627.929 1535.35 629.754 1534.87 631.52C1533.67 635.25 1530.42 635.97 1526.93 636.03C1524.93 636.03 1522.81 635.9 1521 635.97L1500.79 636.72L1460.37 638.24C1434.85 639.187 1409.33 640.143 1383.82 641.11L1379.54 641.27H1377.93C1377.25 641.221 1376.59 641.015 1376 640.668C1375.42 640.321 1374.92 639.842 1374.55 639.27C1373.99 638.166 1373.63 636.97 1373.49 635.74C1372.93 633.112 1372.72 630.423 1372.85 627.74C1373 625.022 1374.12 622.446 1375.99 620.47C1378.74 617.91 1383.72 618.26 1388 618.49Z" fill="white"/>
<path d="M1557.76 958.08C1549.36 962.42 1541.2 955.52 1536.62 946.99C1530.28 935.2 1531.86 918.83 1531.16 905.59C1529.37 872.05 1528.9 838.463 1529.77 804.83C1544.5 812.04 1560.64 813.08 1576.77 814.83C1578.39 849.792 1577.82 884.821 1575.05 919.71C1574.05 932.91 1571.75 945.07 1562.05 954.83C1560.8 956.137 1559.36 957.234 1557.76 958.08Z" fill="#17D79F"/>
<path d="M1526.93 636.07C1525.21 650.07 1523.49 664.07 1521.78 678.07C1520.46 676.4 1519.1 674.76 1517.72 673.12C1504.84 657.92 1489.6 652.98 1471.06 647.76C1468.65 646.95 1466.13 646.558 1463.59 646.6C1459.15 646.91 1453.96 651.6 1455.2 656.47C1455.82 658.9 1457.77 660.75 1459.74 662.29C1465.27 666.579 1471.67 669.594 1478.5 671.12C1484.85 672.7 1489.84 674.75 1494.31 679.57C1499.18 684.83 1502.97 691.37 1506.98 697.39C1504.54 694.738 1501.73 692.451 1498.64 690.6C1489.99 685.6 1432.64 672.23 1439.36 693.72C1441.84 701.61 1449 702.44 1455.81 701.92C1463.04 701.38 1473.55 701.4 1480.22 704.65C1486.71 707.8 1492.93 716.06 1498.3 722.08C1481.06 719.74 1464.07 717.59 1446.56 717.42C1443.56 717.42 1440.36 717.42 1437.77 718.92C1433.77 721.28 1431.98 728 1435.05 731.85C1438.68 736.4 1448.85 736.58 1454.05 736.95C1462.91 737.57 1471.76 738.53 1480.52 739.95C1484.93 740.68 1489.3 741.52 1493.65 742.5C1495.65 742.95 1498.73 742.8 1500.43 744.12C1504.78 747.56 1495.43 746.82 1493.58 746.86C1481.7 747.16 1469.81 747.76 1457.98 748.74C1455.5 748.833 1453.04 749.261 1450.67 750.01C1445.22 752.01 1442.01 759.34 1447.93 763.14C1450.12 764.54 1452.81 764.85 1455.41 765.14C1466.52 766.32 1486.55 763.5 1494.75 772.14C1499.75 777.44 1504.13 782.99 1508.81 788.14L1508.2 788.69C1507.2 796.5 1506.29 804.29 1505.32 812.1C1504.56 818.31 1505.58 827.28 1501.4 832.51C1499.4 835.08 1494.4 834.1 1491.4 834.1H1428.5C1422.63 834.1 1416.72 834.35 1410.87 834.1C1406.25 833.91 1405.48 831.41 1405.09 827.19C1404.7 822.97 1404.15 819.03 1403.68 814.95C1402.75 806.777 1401.81 798.61 1400.88 790.45C1398.99 773.93 1397.09 757.414 1395.2 740.9C1391.4 707.62 1387.59 674.34 1383.78 641.06C1409.29 640.094 1434.81 639.137 1460.33 638.19L1500.75 636.67L1521 636C1522.81 635.94 1524.91 636.12 1526.93 636.07Z" fill="#A15A44"/>
<path d="M1498.3 722.13C1492.93 716.13 1486.71 707.85 1480.22 704.7C1473.55 701.45 1463.04 701.43 1455.81 701.97C1449 702.49 1441.81 701.66 1439.36 693.77C1432.6 672.28 1489.99 685.69 1498.64 690.65C1501.73 692.501 1504.54 694.788 1506.98 697.44C1502.98 691.44 1499.18 684.88 1494.31 679.62C1489.84 674.8 1484.85 672.75 1478.5 671.17C1471.67 669.644 1465.27 666.629 1459.74 662.34C1457.74 660.8 1455.82 658.95 1455.2 656.52C1453.96 651.69 1459.2 646.96 1463.59 646.65C1466.13 646.608 1468.65 647 1471.06 647.81C1489.6 653.03 1504.84 657.97 1517.72 673.17C1519.1 674.81 1520.46 676.45 1521.78 678.12C1533.64 692.83 1543.93 708.66 1554.3 724.54C1558.34 730.607 1563.45 735.895 1569.37 740.15L1569.31 740.24C1572.98 750.96 1572.94 763.91 1574 775.24C1575.24 788.413 1576.16 801.613 1576.77 814.84C1560.64 813.1 1544.5 812.06 1529.77 804.84C1528.89 804.41 1528.02 803.97 1527.16 803.5C1521.43 800.264 1516.24 796.166 1511.76 791.35C1510.76 790.35 1509.76 789.35 1508.86 788.24C1504.18 783.05 1499.86 777.5 1494.8 772.24C1486.6 763.62 1466.57 766.44 1455.46 765.24C1452.86 764.95 1450.17 764.64 1447.98 763.24C1442.06 759.44 1445.27 752.11 1450.72 750.11C1453.09 749.36 1455.55 748.933 1458.03 748.84C1469.86 747.84 1481.75 747.26 1493.63 746.96C1495.49 746.96 1504.83 747.66 1500.48 744.22C1498.78 742.9 1495.72 743.05 1493.7 742.6C1489.35 741.6 1484.98 740.78 1480.57 740.05C1471.81 738.61 1462.96 737.65 1454.1 737.05C1448.85 736.68 1438.68 736.5 1435.1 731.95C1432.03 728.1 1433.79 721.38 1437.82 719.02C1440.41 717.51 1443.59 717.5 1446.61 717.52C1464.07 717.64 1481.06 719.79 1498.3 722.13Z" fill="#FFC094"/>
<path d="M1517.32 977.53C1515.28 915.463 1513.43 853.4 1511.76 791.34C1516.24 796.156 1521.43 800.254 1527.16 803.49C1528.02 803.96 1528.89 804.4 1529.77 804.83C1528.9 838.423 1529.37 872.01 1531.16 905.59C1531.86 918.83 1530.28 935.2 1536.62 946.99C1541.2 955.52 1549.36 962.42 1557.76 958.08C1606.76 968.39 1649.38 1001.94 1697.56 1013.72C1705.05 1079.87 1712.55 1146.03 1720.05 1212.2H1525.05C1522.64 1133.92 1519.91 1055.71 1517.32 977.53Z" fill="#002434"/>
<path d="M1525.05 1212.2H1462.27C1459.72 1186.61 1457.17 1161.03 1454.6 1135.46C1449.39 1083.21 1444.18 1030.97 1438.96 978.72L1517.32 977.53C1519.91 1055.71 1522.64 1133.92 1525.05 1212.2Z" fill="#17D79F"/>
<path d="M1052.55 423.05C1057.88 438.87 1063.19 454.69 1068.47 470.51C1061.14 479.471 1055.57 489.738 1052.06 500.77L1051.12 500.96C1045.56 472.88 1039.98 445.16 1038.8 416.21C1038.67 413.21 1038.62 410.1 1039.93 407.42C1040.46 406.276 1041.29 405.299 1042.33 404.594C1043.38 403.889 1044.59 403.483 1045.85 403.42C1048.05 410 1050.37 416.52 1052.55 423.05Z" fill="#FFC094"/>
<path d="M1045.85 403.45C1042.45 393.774 1039.73 383.874 1037.71 373.82C1037.18 370.98 1036.79 367.97 1037.82 365.27C1039.92 359.85 1045.55 358.04 1050.68 357.49C1057.87 356.71 1065.06 355.05 1072.2 353.84L1114.41 346.68C1119.41 345.84 1124.49 345 1129.41 346.13C1139.09 348.34 1141.59 358.13 1144.32 366.32C1148.1 377.747 1151.86 389.18 1155.6 400.62C1163.09 423.5 1170.57 446.383 1178.03 469.27C1182.14 481.843 1186.26 494.41 1190.4 506.97C1192.1 512.12 1196.29 520.33 1197.3 527.52C1197.98 532.36 1197.21 536.73 1193.3 539.39C1191.37 540.637 1189.22 541.503 1186.96 541.94C1185.01 542.36 1183.04 542.678 1181.05 542.89L1104.27 552.27C1101.17 552.64 1097.92 552.99 1095.07 551.75C1093.93 551.265 1092.94 550.474 1092.22 549.465C1091.5 548.455 1091.08 547.267 1090.99 546.03C1108.81 536.824 1128.42 531.613 1148.46 530.76C1151.67 530.62 1155.03 530.57 1157.91 529.12C1160.79 527.67 1163.01 524.33 1162.03 521.25C1160.88 517.66 1156.41 516.55 1152.64 516.15C1130.51 513.822 1108.14 516.207 1087 523.15C1102.78 508.93 1122.23 502.73 1143.32 499.81C1149.17 499.02 1156.86 499.25 1162.12 496.29C1165.43 494.42 1167.89 490.47 1166.76 486.86C1165.34 482.31 1159.64 480.95 1154.89 480.61C1127.52 478.769 1100.27 485.781 1077.19 500.61C1086.18 485.884 1098.78 473.698 1113.8 465.21C1120.94 461.21 1154.9 451.44 1142.33 438.37C1139.17 435.08 1133.96 435.12 1129.44 435.72C1105.67 438.89 1083.63 451.94 1068.54 470.52C1063.21 454.7 1057.9 438.88 1052.62 423.06C1050.37 416.52 1048.05 410 1045.85 403.45Z" fill="#786A6E"/>
<path d="M1454.6 1135.46C1457.16 1161.04 1459.72 1186.62 1462.27 1212.2H1310.73C1308.64 1135.06 1306.55 1057.92 1304.46 980.78L1400.46 979.32C1400.4 1007.76 1400.56 1036.51 1407.55 1064.07C1414.71 1092.34 1429.93 1119.68 1454.45 1135.48L1454.6 1135.46Z" fill="#17D79F"/>
<path d="M1186.89 541.94C1189.15 541.503 1191.3 540.637 1193.23 539.39C1197.23 536.73 1197.96 532.39 1197.23 527.52H1197.29C1209.98 495.941 1230.34 468.02 1256.52 446.28C1258.61 444.55 1259.05 443.73 1260.04 442.92C1260.46 445.11 1260.98 447.27 1261.61 449.42C1266.78 467.16 1281.19 483.75 1299.61 484.87C1307.71 485.36 1315.51 482.87 1322.51 478.65C1320.18 491.483 1318.07 504.35 1316.18 517.25C1295.74 656.42 1299.45 798.73 1303.27 939.72C1303.65 953.413 1304.02 967.103 1304.39 980.79C1306.49 1057.93 1308.58 1135.07 1310.66 1212.21H1261C1271.21 1132.18 1274.36 1051.41 1270.44 970.83C1268.11 922.97 1262.44 875.46 1257.44 827.83C1244.58 874.15 1220.73 921.52 1181.62 950.43C1166.62 961.55 1147.14 968.18 1128.99 963.7C1095.6 955.46 1084.35 912.15 1076.33 883.4C1066.11 846.777 1062.41 808.644 1065.39 770.74C1067.59 743.34 1081.82 716.9 1087.45 689.44C1094.54 654.83 1096.07 620.39 1098.64 585.31C1105.27 594.37 1107.71 604.76 1110.98 616.4C1115.69 633.207 1120.41 650.013 1125.14 666.82L1153.76 768.82C1157.61 782.55 1162.95 798.02 1176.15 803.42C1179.99 804.958 1184.15 805.508 1188.26 805.02C1196.03 804.2 1203.71 800.18 1209.39 794.63C1228.14 776.35 1235.07 751.37 1234.77 726.22C1234.63 716.712 1233.56 707.24 1231.58 697.94C1227.32 677.64 1213.88 661.27 1203.32 643.94C1198.1 635.297 1193.96 626.053 1190.97 616.41C1187.6 605.94 1183.39 596.5 1182.04 585.53C1184.71 571.12 1189.84 557.22 1187.04 542.12L1186.89 541.94Z" fill="#002434"/>
<path d="M1470.69 310.34L1471.37 310.71C1460.52 347.44 1428.94 377.19 1391.79 386.2C1390.83 377.18 1389.88 368.16 1388.93 359.14C1420.91 356.51 1455.71 339 1470.69 310.34Z" fill="#FA886C"/>
<path d="M1295.38 219.18C1297.44 219.174 1299.46 219.78 1301.17 220.92C1302.89 222.06 1304.23 223.684 1305.02 225.586C1305.81 227.487 1306.02 229.581 1305.62 231.603C1305.23 233.624 1304.24 235.482 1302.78 236.941C1301.33 238.399 1299.47 239.394 1297.45 239.798C1295.43 240.202 1293.34 239.998 1291.43 239.211C1289.53 238.424 1287.9 237.089 1286.76 235.377C1285.61 233.664 1285 231.65 1285 229.59C1285 226.834 1286.09 224.189 1288.04 222.237C1289.98 220.285 1292.62 219.186 1295.38 219.18Z" fill="#211D1E"/>
<path d="M1298.22 172.64C1298.38 173.432 1298.32 174.253 1298.04 175.011C1297.76 175.77 1297.28 176.435 1296.64 176.93C1294.64 178.44 1291.64 177.37 1289.32 177.2C1286.7 177.009 1284.08 177.133 1281.49 177.57C1277.68 178.213 1274.01 179.516 1270.64 181.42C1268.23 182.79 1265.18 183.89 1263.31 180.96C1262.81 180.064 1262.54 179.053 1262.54 178.025C1262.54 176.997 1262.81 175.987 1263.31 175.09C1265.53 170.82 1271.54 169.28 1275.88 168.21C1281.07 166.926 1286.48 166.834 1291.71 167.94C1294.48 168.52 1297.59 169.88 1298.22 172.64Z" fill="#211D1E"/>
<path d="M1392.65 394.36C1392.35 391.64 1392.06 388.93 1391.79 386.2C1428.94 377.2 1460.52 347.44 1471.37 310.71L1470.69 310.34C1455.69 339.02 1420.91 356.51 1388.93 359.14C1386.22 359.37 1383.53 359.48 1380.87 359.49C1349.6 359.57 1319.97 346.16 1298.24 323.88C1270.32 295.25 1261.85 255.08 1258.17 216.88C1254.65 180.38 1241.72 146.04 1251.82 109.22C1255.69 95.1201 1265.27 75.5401 1281.15 72.5301C1290.25 70.8101 1299.77 73.6601 1307.58 78.6301C1315.39 83.6001 1321.74 90.5501 1327.63 97.7001C1337.89 110.385 1347.43 123.643 1356.19 137.41C1360.26 143.66 1363.81 151.52 1369 156.89C1370.69 158.63 1373.26 159.7 1374.65 161.72C1376.65 164.62 1374.3 166.72 1376.22 169.72C1377.85 172.28 1380.38 171.77 1382.59 170.72C1391.27 179.8 1401.26 187.37 1413.59 191.92C1423.21 195.49 1435.59 196.85 1447.81 195.71C1453.41 199.8 1460.56 202.79 1464.47 207.06C1469.02 212.06 1470.19 219.14 1476.29 222.06C1479.29 201.24 1509.48 196.89 1519.96 215.74C1525.09 224.97 1522.89 237.23 1516.75 245.46C1509.27 255.46 1492.75 268.15 1480.02 264.79L1479.83 264.87C1483.14 272.11 1481.72 290.87 1480.97 299.59C1479.87 312.48 1479.84 325.65 1477.97 338.44C1476.1 351.23 1473.52 364.07 1471.21 376.88C1468.9 389.69 1465.51 403.88 1465.36 417.05C1465.17 433.95 1469.76 450.66 1484.12 460.48C1492.63 466.29 1502.92 466.96 1512.53 464.2C1511.05 476.66 1509.92 489.103 1509.15 501.53C1446.24 517.786 1381 523.104 1316.28 517.25C1318.18 504.357 1320.29 491.49 1322.61 478.65C1328.16 475.248 1333.17 471.05 1337.5 466.19C1357.9 443.66 1370.34 415.55 1392.5 394.38L1392.65 394.36ZM1405 219.18C1405 217.121 1404.39 215.108 1403.25 213.397C1402.1 211.685 1400.48 210.35 1398.57 209.563C1396.67 208.775 1394.58 208.568 1392.56 208.97C1390.54 209.372 1388.68 210.363 1387.23 211.819C1385.77 213.275 1384.78 215.13 1384.38 217.149C1383.98 219.169 1384.18 221.262 1384.97 223.164C1385.76 225.066 1387.09 226.692 1388.81 227.836C1390.52 228.98 1392.53 229.59 1394.59 229.59C1397.35 229.59 1400 228.493 1401.95 226.541C1403.9 224.589 1405 221.941 1405 219.18ZM1305.79 229.59C1305.79 227.531 1305.18 225.518 1304.03 223.806C1302.89 222.093 1301.26 220.759 1299.36 219.972C1297.46 219.184 1295.37 218.978 1293.35 219.381C1291.33 219.783 1289.47 220.776 1288.02 222.233C1286.56 223.689 1285.57 225.545 1285.17 227.565C1284.77 229.585 1284.98 231.679 1285.77 233.581C1286.55 235.483 1287.89 237.108 1289.6 238.251C1291.32 239.393 1293.33 240.002 1295.39 240C1296.76 239.999 1298.11 239.728 1299.37 239.205C1300.63 238.681 1301.78 237.914 1302.74 236.947C1303.71 235.98 1304.47 234.833 1304.99 233.571C1305.51 232.308 1305.78 230.956 1305.78 229.59H1305.79ZM1296.65 176.93C1297.29 176.434 1297.77 175.77 1298.05 175.011C1298.33 174.253 1298.39 173.431 1298.23 172.64C1297.6 169.88 1294.49 168.52 1291.71 167.94C1286.48 166.834 1281.07 166.926 1275.88 168.21C1271.54 169.28 1265.53 170.82 1263.31 175.09C1262.81 175.987 1262.54 176.997 1262.54 178.025C1262.54 179.053 1262.81 180.064 1263.31 180.96C1265.18 183.89 1268.23 182.79 1270.64 181.42C1274.01 179.516 1277.68 178.213 1281.49 177.57C1284.08 177.133 1286.7 177.008 1289.32 177.2C1291.62 177.37 1294.63 178.44 1296.64 176.93H1296.65Z" fill="#FFC094"/>
<path d="M1061.69 376.08C1061.74 377.554 1061.35 379.009 1060.57 380.26C1059.79 381.51 1058.65 382.499 1057.31 383.099C1055.96 383.699 1054.46 383.884 1053.01 383.628C1051.56 383.373 1050.22 382.689 1049.16 381.665C1048.1 380.641 1047.36 379.324 1047.06 377.882C1046.75 376.44 1046.88 374.939 1047.43 373.571C1047.98 372.204 1048.93 371.033 1050.15 370.207C1051.37 369.382 1052.82 368.941 1054.29 368.94C1056.22 368.908 1058.08 369.642 1059.47 370.98C1060.85 372.319 1061.65 374.153 1061.69 376.08Z" fill="white"/>
<path d="M497.64 185.11C492.705 182.077 487.033 180.451 481.24 180.41C475.825 180.377 470.434 181.138 465.24 182.67C464.282 182.978 463.478 183.641 462.994 184.524C462.51 185.406 462.384 186.441 462.64 187.414C462.896 188.387 463.516 189.225 464.372 189.754C465.228 190.284 466.255 190.465 467.24 190.26C471.715 188.912 476.366 188.238 481.04 188.26C485.389 188.258 489.654 189.452 493.37 191.71C494.003 192.115 494.738 192.334 495.49 192.34C496.338 192.338 497.162 192.061 497.841 191.553C498.519 191.044 499.016 190.33 499.256 189.517C499.496 188.704 499.468 187.835 499.175 187.039C498.882 186.244 498.34 185.564 497.63 185.1L497.64 185.11Z" fill="#4D2B1D"/>
<path d="M460.03 697.65H428.12H403.11L397.68 686.59H368.88V697.65H354.07V717.02H359.09H501.43H507.66V697.65H460.03Z" fill="white"/>
</svg>
