<svg width="320" height="382" viewBox="0 0 320 382" fill="none" xmlns="http://www.w3.org/2000/svg">
<path d="M259.348 186.902C253.412 204.894 240.621 224.619 221.794 231.039C193.352 240.745 190.8 264.069 139.192 263.911C131.656 263.921 124.141 263.114 116.779 261.504C113.179 260.704 109.635 259.675 106.166 258.424C75.586 247.393 58.844 221.161 56.446 193.128C53.3 156.256 78.3888 137.657 94.726 126.688C111.063 115.719 129.719 75.0102 180.469 74.7682C188.216 74.6988 195.945 75.5241 203.503 77.2278C220.733 81.1878 238.465 90.7226 249.118 105.256C249.914 106.347 250.68 107.456 251.419 108.609C265.802 130.974 267.444 162.368 259.348 186.902Z" fill="#92E3A9"/>
<path opacity="0.7" d="M259.348 186.902C253.412 204.894 240.621 224.619 221.794 231.039C193.352 240.745 190.8 264.069 139.192 263.911C131.656 263.921 124.141 263.114 116.779 261.504C113.179 260.704 109.635 259.675 106.166 258.424C75.586 247.393 58.844 221.161 56.446 193.128C53.3 156.256 78.3888 137.657 94.726 126.688C111.063 115.719 129.719 75.0102 180.469 74.7682C188.216 74.6988 195.945 75.5241 203.503 77.2278C220.733 81.1878 238.465 90.7226 249.118 105.256C249.914 106.347 250.68 107.456 251.419 108.609C265.802 130.974 267.444 162.368 259.348 186.902Z" fill="white"/>
<path d="M62.5312 77.8965L59.3236 81.6233H116.73V77.8965" stroke="#263238" stroke-linecap="round" stroke-linejoin="round"/>
<path d="M62.5312 83.2778L59.3236 87.0046H116.73V83.2778" stroke="#263238" stroke-linecap="round" stroke-linejoin="round"/>
<path d="M62.5312 88.6631L59.3236 92.3899H116.73V88.6631" stroke="#263238" stroke-linecap="round" stroke-linejoin="round"/>
<path d="M62.5312 94.0444L59.3236 97.7712H116.73V94.0444" stroke="#263238" stroke-linecap="round" stroke-linejoin="round"/>
<path d="M62.5312 99.4302L59.3236 103.157H116.73V99.4302" stroke="#263238" stroke-linecap="round" stroke-linejoin="round"/>
<path d="M62.5312 104.811L59.3236 108.538H116.73V104.811" stroke="#263238" stroke-linecap="round" stroke-linejoin="round"/>
<path d="M62.5312 110.192L59.3236 113.919H116.73V110.192" stroke="#263238" stroke-linecap="round" stroke-linejoin="round"/>
<path d="M62.5312 115.578L59.3236 119.305H116.73V115.578" stroke="#263238" stroke-linecap="round" stroke-linejoin="round"/>
<path d="M62.5312 120.959L59.3236 124.686H116.73V120.959" stroke="#263238" stroke-linecap="round" stroke-linejoin="round"/>
<path d="M62.5312 126.345L59.3236 130.072H116.73V126.345" stroke="#263238" stroke-linecap="round" stroke-linejoin="round"/>
<path d="M62.5312 131.726L59.3236 135.453H116.73V131.726" stroke="#263238" stroke-linecap="round" stroke-linejoin="round"/>
<path d="M62.5312 137.107L59.3236 140.834H116.73V137.107" stroke="#263238" stroke-linecap="round" stroke-linejoin="round"/>
<path d="M62.5312 142.493L59.3236 146.219H116.73V142.493" stroke="#263238" stroke-linecap="round" stroke-linejoin="round"/>
<path d="M62.5312 147.874L59.3236 151.601H116.73V147.874" stroke="#263238" stroke-linecap="round" stroke-linejoin="round"/>
<path d="M62.5312 153.26L59.3236 156.987H116.73V153.26" stroke="#263238" stroke-linecap="round" stroke-linejoin="round"/>
<path d="M62.5312 158.641L59.3236 162.367H116.73V158.641" stroke="#263238" stroke-linecap="round" stroke-linejoin="round"/>
<path d="M62.5312 164.026L59.3236 167.753H116.73V164.026" stroke="#263238" stroke-linecap="round" stroke-linejoin="round"/>
<path d="M119.463 72.4185H59.2356V77.9493H119.463V72.4185Z" stroke="#263238" stroke-linecap="round" stroke-linejoin="round"/>
<path d="M118.108 78.2046V132.897" stroke="#263238" stroke-linecap="round" stroke-linejoin="round"/>
<path d="M119.164 133.072H117.201V136.927H119.164V133.072Z" stroke="#263238" stroke-linecap="round" stroke-linejoin="round"/>
<path d="M80.888 187.707C80.8948 187.699 80.8985 187.689 80.8985 187.679C80.8985 187.668 80.8948 187.658 80.888 187.65C80.878 187.647 80.8672 187.647 80.8575 187.651C80.8478 187.655 80.8399 187.663 80.8352 187.672C79.6031 190.621 78.63 193.671 77.9268 196.789C77.2078 199.906 76.6643 203.062 76.2988 206.24L76.0744 208.629C76.0392 209.03 75.9952 209.426 75.9644 209.826L75.9028 211.023C75.8676 211.824 75.8192 212.62 75.7928 213.421L75.8148 215.819L75.8412 217.02C75.8632 217.42 75.8896 217.821 75.916 218.217C75.9776 219.018 76.026 219.814 76.1008 220.61C76.2504 222.199 76.4924 223.783 76.7388 225.358C76.7387 225.363 76.7398 225.368 76.7418 225.373C76.7439 225.377 76.7468 225.381 76.7506 225.385C76.7543 225.388 76.7588 225.39 76.7636 225.392C76.7684 225.393 76.7734 225.394 76.7784 225.393C76.7893 225.393 76.7999 225.389 76.808 225.382C76.8162 225.375 76.8213 225.365 76.8224 225.354C76.8224 224.553 76.7828 223.756 76.7652 222.964C76.7476 222.172 76.6728 221.376 76.686 220.58C76.6992 219.783 76.686 218.991 76.6596 218.199L76.6376 217.007V215.819V213.438L76.7036 211.062L76.7256 209.874C76.7256 209.478 76.7696 209.082 76.7916 208.686L76.9368 206.31C77.2097 203.146 77.6592 200 78.2832 196.886C78.8849 193.757 79.7564 190.686 80.888 187.707Z" fill="#263238"/>
<path d="M81.24 200.146C81.242 200.135 81.2406 200.125 81.2358 200.115C81.231 200.105 81.2232 200.098 81.2136 200.093C81.2084 200.091 81.2029 200.09 81.1973 200.09C81.1917 200.091 81.1863 200.092 81.1813 200.095C81.1763 200.097 81.1719 200.101 81.1684 200.105C81.1648 200.109 81.1623 200.114 81.1608 200.12C79.8 204.085 78.8966 208.194 78.468 212.365C78.2568 214.446 78.028 216.532 77.9928 218.622C77.9423 220.716 78.0172 222.811 78.2172 224.896C78.218 224.905 78.2218 224.914 78.2282 224.922C78.2345 224.929 78.243 224.934 78.2524 224.936C78.2582 224.936 78.264 224.936 78.2696 224.934C78.2752 224.932 78.2804 224.93 78.2849 224.926C78.2894 224.922 78.2931 224.918 78.2958 224.912C78.2986 224.907 78.3002 224.902 78.3008 224.896C78.5428 222.815 78.688 220.734 78.8332 218.657C78.9784 216.58 79.0004 214.499 79.1368 212.422C79.2636 210.349 79.5074 208.285 79.8672 206.24C80.2124 204.185 80.6707 202.15 81.24 200.146Z" fill="#263238"/>
<path d="M88.126 204.519C88.1177 204.511 88.1067 204.507 88.0952 204.507C88.0836 204.507 88.0726 204.511 88.0644 204.519C86.3357 205.621 84.7777 206.97 83.44 208.523C82.7687 209.307 82.1652 210.146 81.636 211.031L81.2664 211.731L80.976 212.457C80.8785 212.697 80.7933 212.943 80.7208 213.192C80.646 213.438 80.5668 213.689 80.4964 213.935C79.9705 215.924 79.6521 217.962 79.546 220.016C79.4416 222.061 79.5182 224.11 79.7748 226.141C79.7755 226.151 79.7794 226.16 79.7857 226.167C79.7921 226.174 79.8006 226.179 79.81 226.181C79.8214 226.181 79.8326 226.177 79.8414 226.17C79.8503 226.162 79.8563 226.152 79.8584 226.141L80.382 220.078C80.5272 218.072 80.7842 216.076 81.152 214.098C81.2048 213.856 81.2752 213.614 81.3368 213.377C81.3932 213.134 81.4637 212.894 81.548 212.659L81.812 211.96L82.1288 211.3C82.6069 210.418 83.1604 209.579 83.7832 208.792C85.0109 207.183 86.4681 205.762 88.1084 204.577C88.1173 204.57 88.1239 204.561 88.1271 204.551C88.1303 204.541 88.1299 204.53 88.126 204.519Z" fill="#263238"/>
<path d="M84.7864 212.308C83.8913 212.963 83.1719 213.829 82.692 214.829C82.1858 215.808 81.7917 216.841 81.5172 217.909C81.4348 218.172 81.3658 218.439 81.3104 218.71L81.1212 219.515C81.0208 220.056 80.9532 220.602 80.9188 221.152C80.9188 221.702 80.8924 222.252 80.9188 222.797C80.9575 223.347 81.0295 223.893 81.1344 224.434C81.1365 224.443 81.1409 224.45 81.1471 224.456C81.1533 224.463 81.1611 224.467 81.1696 224.469C81.1751 224.471 81.1808 224.471 81.1864 224.469C81.192 224.468 81.1972 224.466 81.2018 224.463C81.2064 224.459 81.2102 224.455 81.213 224.45C81.2158 224.445 81.2175 224.44 81.218 224.434C81.3445 223.903 81.4415 223.365 81.5084 222.824C81.592 222.291 81.6756 221.759 81.7416 221.231C81.8076 220.703 81.8868 220.175 81.9308 219.642C81.9748 219.11 82.0408 218.578 82.1596 218.058C82.3373 217.009 82.6325 215.984 83.0396 215C83.4077 213.993 84.0111 213.088 84.7996 212.36C84.8033 212.357 84.8063 212.353 84.8084 212.349C84.8104 212.344 84.8115 212.339 84.8115 212.334C84.8115 212.329 84.8104 212.324 84.8084 212.32C84.8063 212.315 84.8033 212.311 84.7996 212.308C84.7952 212.307 84.7908 212.307 84.7864 212.308Z" fill="#263238"/>
<path d="M75.1196 218.379C74.8908 215.691 74.4464 213.025 74.0284 210.363C73.6104 207.701 73.1484 205.043 72.6556 202.39C72.1628 199.737 71.626 197.11 71.054 194.47C71.0511 194.461 71.0455 194.453 71.038 194.448C71.0305 194.442 71.0215 194.439 71.0122 194.439C71.0029 194.439 70.9939 194.442 70.9864 194.448C70.9789 194.453 70.9733 194.461 70.9704 194.47C71.4324 197.11 71.8504 199.785 72.242 202.447C72.6336 205.109 73.0252 207.775 73.364 210.442C73.7028 213.108 73.9492 215.792 74.2836 218.454L75.2692 226.48C75.2692 226.49 75.2734 226.5 75.2808 226.508C75.2882 226.515 75.2983 226.519 75.3088 226.519C75.3195 226.519 75.3296 226.514 75.3376 226.507C75.3455 226.5 75.3509 226.49 75.3528 226.48C75.3836 225.802 75.3836 225.129 75.4012 224.451C75.4188 223.774 75.3704 223.101 75.3616 222.427C75.3352 221.072 75.2208 219.73 75.1196 218.379Z" fill="#263238"/>
<path d="M73.5048 218.345C73.3596 217.275 73.166 216.215 72.9592 215.159L72.5852 213.588C72.4576 213.065 72.3432 212.541 72.1892 212.022C71.6527 209.934 70.9645 207.889 70.13 205.901L69.8 205.162L69.4392 204.436C69.2148 203.948 68.9376 203.486 68.6736 203.015C68.1479 202.071 67.495 201.203 66.7332 200.437C66.7295 200.433 66.725 200.43 66.7201 200.427C66.7152 200.425 66.7099 200.424 66.7046 200.424C66.6992 200.424 66.6939 200.425 66.689 200.427C66.6841 200.43 66.6797 200.433 66.676 200.437C66.6721 200.44 66.669 200.445 66.6669 200.45C66.6648 200.454 66.6638 200.46 66.6638 200.465C66.6638 200.47 66.6648 200.476 66.6669 200.481C66.669 200.486 66.6721 200.49 66.676 200.494C67.38 201.29 67.9721 202.178 68.436 203.134C68.6736 203.609 68.92 204.08 69.118 204.577L69.4348 205.307L69.7164 206.055C70.4608 208.051 71.0593 210.098 71.5072 212.18C71.7536 213.214 71.9164 214.27 72.1188 215.313L72.3696 216.893C72.462 217.416 72.572 217.935 72.6468 218.463C72.814 219.515 73.0076 220.567 73.1924 221.618C73.3772 222.67 73.5488 223.73 73.7688 224.782C73.7708 224.792 73.7764 224.801 73.7844 224.807C73.7924 224.814 73.8025 224.817 73.8128 224.817C73.8233 224.817 73.8333 224.813 73.8408 224.805C73.8482 224.798 73.8524 224.788 73.8524 224.777C73.8524 223.701 73.8274 222.626 73.7776 221.552C73.76 220.483 73.6148 219.414 73.5048 218.345Z" fill="#263238"/>
<path d="M71.2784 218.481C70.7768 217.068 70.2004 215.687 69.5712 214.332C68.9371 212.978 68.2215 211.665 67.4284 210.398C67.4201 210.392 67.41 210.389 67.3998 210.389C67.3895 210.389 67.3795 210.392 67.3712 210.398C67.3643 210.406 67.3606 210.416 67.3606 210.427C67.3606 210.437 67.3643 210.447 67.3712 210.455C68.0616 211.77 68.6728 213.124 69.2016 214.512C69.7472 215.885 70.24 217.284 70.6492 218.701C71.0584 220.118 71.3752 221.565 71.7492 222.991C72.1232 224.416 72.4664 225.851 72.9064 227.29C72.909 227.298 72.9143 227.306 72.9213 227.311C72.9284 227.317 72.937 227.32 72.946 227.32C72.9569 227.32 72.9675 227.316 72.9756 227.309C72.9837 227.302 72.9889 227.292 72.99 227.281C73.0072 225.777 72.8671 224.276 72.572 222.802C72.2563 221.329 71.8238 219.884 71.2784 218.481Z" fill="#263238"/>
<path d="M71.186 223.184C70.9111 222.303 70.511 221.466 69.998 220.698C69.5217 219.911 68.9416 219.192 68.2732 218.56C67.9269 218.251 67.5544 217.973 67.16 217.728C66.7757 217.479 66.3559 217.289 65.9148 217.165C65.9049 217.163 65.8948 217.165 65.886 217.17C65.8772 217.175 65.8703 217.182 65.8664 217.192C65.8599 217.199 65.8563 217.208 65.8563 217.218C65.8563 217.228 65.8599 217.237 65.8664 217.244C66.6615 217.624 67.3654 218.17 67.93 218.846C68.5057 219.504 68.9897 220.236 69.3688 221.024C69.778 221.798 69.9892 222.652 70.3456 223.448C70.4996 223.858 70.658 224.267 70.8384 224.676C70.9919 225.101 71.1727 225.515 71.3796 225.917C71.3832 225.923 71.3883 225.928 71.3944 225.932C71.4006 225.936 71.4076 225.938 71.4148 225.939C71.4263 225.939 71.4374 225.935 71.4463 225.928C71.4551 225.921 71.4611 225.911 71.4632 225.899C71.4765 225.44 71.4588 224.979 71.4104 224.522C71.3884 224.078 71.2916 223.629 71.186 223.184Z" fill="#263238"/>
<path d="M71.3488 198.32C70.005 197.945 68.7892 197.21 67.8329 196.194C66.8767 195.178 66.2165 193.92 65.9236 192.556C64.9028 187.804 68.1852 189.841 65.246 182.375C62.3068 174.908 62.9844 173.218 64.0008 171.067C65.0172 168.915 65.5848 169.597 66.4868 172.426C67.3888 175.255 70.68 179.664 71.9164 187.919C73.1528 196.173 71.3488 198.32 71.3488 198.32Z" fill="#92E3A9"/>
<path d="M80.0608 190.294C80.0608 190.294 77.1172 189.273 77.0072 183.734C76.8972 178.194 79.1544 179.334 79.4932 172.426C79.832 165.518 80.2852 160.665 81.5304 160.546C82.7756 160.427 86.0536 163.938 87.1844 171.629C88.3152 179.321 85.7148 184.389 83.4532 186.669C81.1916 188.948 80.0608 190.294 80.0608 190.294Z" fill="#92E3A9"/>
<path d="M69.7692 204.995C69.7692 204.995 69.0872 200.925 67.732 199.002C66.3768 197.079 63.4332 195.381 61.5104 191.65C59.5876 187.918 57.4404 186.11 57.5504 191.425C57.6604 196.74 60.0364 199.451 62.98 201.264C65.9236 203.076 69.7692 204.995 69.7692 204.995Z" fill="#92E3A9"/>
<path d="M68.524 212.004C68.524 212.004 65.8092 206.803 61.8536 202.957C57.898 199.112 54.7256 197.189 55.8564 199.112C56.9872 201.035 58.3468 200.925 60.2564 204.317C62.166 207.709 61.6116 210.195 64.3264 212.118C67.0412 214.041 68.524 212.004 68.524 212.004Z" fill="#92E3A9"/>
<path d="M68.1852 218.679C68.0708 218.34 67.9564 215.85 64.1152 213.839C60.274 211.828 56.6352 212.594 57.1016 213.61C57.568 214.626 59.9308 216.325 62.3024 217.341C64.674 218.358 68.1852 218.679 68.1852 218.679Z" fill="#92E3A9"/>
<path d="M79.832 205.219C79.832 205.219 78.16 203.072 79.04 198.549C79.92 194.025 81.9792 195.156 84.2452 192.78C86.5112 190.404 86.0536 190.065 88.3152 187.579C90.5768 185.093 92.6096 183.734 93.516 184.75C94.4224 185.767 93.076 188.935 91.7076 190.743C90.3392 192.551 88.1876 193.458 87.1844 195.719C86.1812 197.981 86.6168 201.602 84.0164 203.296C81.416 204.99 79.832 205.219 79.832 205.219Z" fill="#92E3A9"/>
<path d="M85.486 206.464C85.486 206.464 89.5604 201.84 92.4996 198.434C95.4388 195.029 96.5696 192.442 96.684 194.703C96.7984 196.965 97.7004 198.773 95.3244 201.712C92.9484 204.652 85.486 206.464 85.486 206.464Z" fill="#92E3A9"/>
<path d="M83.3388 213.927C83.3388 213.927 83.2244 212.118 89.6704 207.934C96.1164 203.749 98.8312 202.957 98.1536 204.656C97.476 206.354 94.6336 208.048 91.5932 211.102C88.5528 214.155 83.3388 213.927 83.3388 213.927Z" fill="#92E3A9"/>
<path d="M71.6216 197.84C71.6216 197.84 70.108 189.727 68.5416 183.958C66.9752 178.19 65.9412 174.688 65.9412 174.688" stroke="#263238" stroke-linecap="round" stroke-linejoin="round"/>
<path d="M79.7968 190.4C79.7968 190.4 82.56 181.6 83.44 176.267C84.32 170.934 83.3256 166.996 82.8724 164.62" stroke="#263238" stroke-linecap="round" stroke-linejoin="round"/>
<path d="M69.4128 204.823C68.1943 202.73 66.8003 200.745 65.246 198.888C62.7556 195.948 60.846 194.364 59.702 191.535" stroke="#263238" stroke-linecap="round" stroke-linejoin="round"/>
<path d="M79.832 205.219C79.832 205.219 80.7384 199.789 82.8856 196.965C85.0328 194.14 89.3316 189.727 91.03 186.88" stroke="#263238" stroke-linecap="round" stroke-linejoin="round"/>
<path d="M67.9168 218.56C67.9168 218.56 64.1152 216.083 61.4004 214.723" stroke="#263238" stroke-linecap="round" stroke-linejoin="round"/>
<path d="M89.71 241.348C89.4548 234.488 81.8296 229.908 81.8296 229.908H70.1432C70.1432 229.908 62.518 234.484 62.2628 241.348C62.0076 248.212 70.9044 273.371 70.9044 273.371H81.0684C81.0684 273.371 89.9608 248.212 89.71 241.348Z" fill="#263238" stroke="#263238" stroke-linecap="round" stroke-linejoin="round"/>
<path d="M83.3344 223.162H68.4228L70.1432 229.912H81.614L83.3344 223.162Z" fill="#263238" stroke="#263238" stroke-linecap="round" stroke-linejoin="round"/>
<path d="M262.304 273.371H57.8452" stroke="#263238" stroke-linecap="round" stroke-linejoin="round"/>
<path d="M183.839 90.7222V241.915C183.839 243.908 183.047 245.82 181.638 247.229C180.229 248.638 178.317 249.43 176.324 249.43H110.993C109 249.43 107.088 248.638 105.679 247.229C104.269 245.82 103.478 243.908 103.478 241.915V90.7178C103.478 88.7258 104.269 86.8154 105.677 85.4069C107.086 83.9984 108.996 83.207 110.988 83.207H139.03L139.056 83.2906C139.76 85.8074 141.362 87.4398 143.148 87.4398H144.16C145.946 87.4398 147.552 85.803 148.252 83.2862L148.283 83.2026H176.324C177.311 83.2026 178.289 83.3972 179.201 83.7751C180.113 84.1531 180.942 84.707 181.64 85.4053C182.338 86.1037 182.891 86.9326 183.268 87.8449C183.646 88.7572 183.84 89.735 183.839 90.7222Z" fill="white" stroke="#263238" stroke-miterlimit="10"/>
<path d="M155.996 181.974H132.689C131.513 181.974 130.56 182.927 130.56 184.103V188.433C130.56 189.609 131.513 190.562 132.689 190.562H155.996C157.172 190.562 158.126 189.609 158.126 188.433V184.103C158.126 182.927 157.172 181.974 155.996 181.974Z" fill="#263238" stroke="#263238" stroke-linecap="round" stroke-linejoin="round"/>
<path d="M103.478 202.394V241.915C103.478 243.908 104.269 245.82 105.679 247.229C107.088 248.638 109 249.43 110.993 249.43H176.324C178.317 249.43 180.229 248.638 181.638 247.229C183.047 245.82 183.839 243.908 183.839 241.915V202.394H103.478Z" fill="#DBDBDB" stroke="#263238" stroke-linecap="round" stroke-linejoin="round"/>
<path d="M127.95 207.164H107.917C107.366 207.164 106.918 207.611 106.918 208.162V213.566C106.918 214.117 107.366 214.564 107.917 214.564H127.95C128.502 214.564 128.949 214.117 128.949 213.566V208.162C128.949 207.611 128.502 207.164 127.95 207.164Z" fill="white"/>
<path d="M152.608 207.164H132.575C132.023 207.164 131.576 207.611 131.576 208.162V213.566C131.576 214.117 132.023 214.564 132.575 214.564H152.608C153.16 214.564 153.607 214.117 153.607 213.566V208.162C153.607 207.611 153.16 207.164 152.608 207.164Z" fill="white"/>
<path d="M177.261 207.164H157.228C156.676 207.164 156.229 207.611 156.229 208.162V213.566C156.229 214.117 156.676 214.564 157.228 214.564H177.261C177.813 214.564 178.26 214.117 178.26 213.566V208.162C178.26 207.611 177.813 207.164 177.261 207.164Z" fill="white"/>
<path d="M127.95 216.624H107.917C107.366 216.624 106.918 217.071 106.918 217.623V223.026C106.918 223.578 107.366 224.025 107.917 224.025H127.95C128.502 224.025 128.949 223.578 128.949 223.026V217.623C128.949 217.071 128.502 216.624 127.95 216.624Z" fill="white"/>
<path d="M152.608 216.624H132.575C132.023 216.624 131.576 217.071 131.576 217.623V223.026C131.576 223.578 132.023 224.025 132.575 224.025H152.608C153.16 224.025 153.607 223.578 153.607 223.026V217.623C153.607 217.071 153.16 216.624 152.608 216.624Z" fill="white"/>
<path d="M177.261 216.624H157.228C156.676 216.624 156.229 217.071 156.229 217.623V223.026C156.229 223.578 156.676 224.025 157.228 224.025H177.261C177.813 224.025 178.26 223.578 178.26 223.026V217.623C178.26 217.071 177.813 216.624 177.261 216.624Z" fill="white"/>
<path d="M127.95 226.08H107.917C107.366 226.08 106.918 226.527 106.918 227.078V232.482C106.918 233.033 107.366 233.48 107.917 233.48H127.95C128.502 233.48 128.949 233.033 128.949 232.482V227.078C128.949 226.527 128.502 226.08 127.95 226.08Z" fill="white"/>
<path d="M152.608 226.08H132.575C132.023 226.08 131.576 226.527 131.576 227.078V232.482C131.576 233.033 132.023 233.48 132.575 233.48H152.608C153.16 233.48 153.607 233.033 153.607 232.482V227.078C153.607 226.527 153.16 226.08 152.608 226.08Z" fill="white"/>
<path d="M177.261 226.08H157.228C156.676 226.08 156.229 226.527 156.229 227.078V232.482C156.229 233.033 156.676 233.48 157.228 233.48H177.261C177.813 233.48 178.26 233.033 178.26 232.482V227.078C178.26 226.527 177.813 226.08 177.261 226.08Z" fill="white"/>
<path d="M152.608 235.54H132.575C132.023 235.54 131.576 235.987 131.576 236.538V241.942C131.576 242.493 132.023 242.94 132.575 242.94H152.608C153.16 242.94 153.607 242.493 153.607 241.942V236.538C153.607 235.987 153.16 235.54 152.608 235.54Z" fill="white"/>
<path d="M175.602 242.94H161.857L158.891 239.495L161.857 235.54H175.602V242.94Z" fill="white"/>
<path d="M144.538 117.448L144.34 117.298L144.142 117.448C144.142 117.448 134.022 123.208 129.446 125.394C129.446 125.394 131.646 137.714 133.217 143.267C134.788 148.82 140.966 151.808 144.34 153.792C147.72 151.808 153.875 148.829 155.464 143.267C157.052 137.706 159.239 125.394 159.239 125.394C154.667 123.208 144.538 117.448 144.538 117.448Z" fill="#92E3A9"/>
<path d="M143.302 141.256L136.588 135.501C136.434 135.369 136.308 135.209 136.216 135.029C136.124 134.849 136.069 134.652 136.053 134.45C136.021 134.043 136.153 133.64 136.418 133.33C136.684 133.019 137.062 132.827 137.469 132.795C137.876 132.763 138.279 132.895 138.59 133.16L142.99 136.935L150.531 128.36C150.801 128.053 151.181 127.866 151.589 127.839C151.996 127.813 152.398 127.949 152.705 128.219C153.012 128.488 153.199 128.869 153.225 129.277C153.252 129.684 153.115 130.086 152.846 130.393L143.302 141.256Z" fill="white"/>
<path d="M118.121 160.669H108.986V169.803H118.121V160.669Z" fill="white" stroke="#263238" stroke-miterlimit="10"/>
<path d="M130.436 160.669H121.302V169.803H130.436V160.669Z" fill="white" stroke="#263238" stroke-miterlimit="10"/>
<path d="M142.752 160.669H133.618V169.803H142.752V160.669Z" fill="white" stroke="#263238" stroke-miterlimit="10"/>
<path d="M155.063 160.669H145.929V169.803H155.063V160.669Z" fill="white" stroke="#263238" stroke-miterlimit="10"/>
<path d="M167.379 160.669H158.244V169.803H167.379V160.669Z" fill="white" stroke="#263238" stroke-miterlimit="10"/>
<path d="M179.694 160.669H170.56V169.803H179.694V160.669Z" fill="white" stroke="#263238" stroke-miterlimit="10"/>
<path d="M183.839 97.7534V90.7134C183.837 88.7218 183.044 86.8125 181.635 85.4051C180.226 83.9976 178.316 83.207 176.324 83.207H148.287L148.261 83.2906C147.561 85.8074 145.955 87.4398 144.16 87.4398H143.148C141.362 87.4398 139.751 85.803 139.056 83.2862L139.03 83.2026H110.988C108.996 83.2026 107.086 83.994 105.677 85.4025C104.269 86.811 103.478 88.7214 103.478 90.7134V97.7534H183.839Z" fill="#DBDBDB" stroke="#263238" stroke-linecap="round" stroke-linejoin="round"/>
<path d="M188.948 126.833V111.732H187.579V92.3986C187.58 90.8335 187.272 89.2836 186.673 87.8375C186.075 86.3914 185.197 85.0773 184.091 83.9704C182.984 82.8636 181.671 81.9855 180.225 81.3864C178.779 80.7874 177.229 80.479 175.664 80.479H111.653C110.086 80.4773 108.535 80.7843 107.087 81.3825C105.64 81.9808 104.324 82.8585 103.216 83.9655C102.108 85.0725 101.228 86.3871 100.629 87.8341C100.029 89.2811 99.72 90.8322 99.72 92.3986V246.025C99.72 247.59 100.028 249.139 100.627 250.585C101.227 252.031 102.105 253.345 103.211 254.451C104.318 255.558 105.632 256.436 107.079 257.034C108.525 257.633 110.075 257.94 111.64 257.94H175.664C177.229 257.94 178.779 257.633 180.224 257.034C181.67 256.435 182.984 255.558 184.091 254.451C185.197 253.345 186.075 252.031 186.673 250.585C187.272 249.139 187.58 247.59 187.579 246.025V139.703H188.948V130.78H187.579V126.82L188.948 126.833ZM183.839 237.511C183.839 240.672 182.583 243.704 180.348 245.939C178.113 248.174 175.081 249.43 171.92 249.43H115.397C112.236 249.43 109.204 248.174 106.969 245.939C104.733 243.704 103.478 240.672 103.478 237.511V95.1222C103.479 91.9617 104.735 88.931 106.97 86.6966C109.206 84.4622 112.237 83.207 115.397 83.207H139.03L139.056 83.2906C139.76 85.8074 141.362 87.4398 143.148 87.4398H144.16C145.946 87.4398 147.552 85.803 148.252 83.2862L148.283 83.2026H171.911C175.071 83.2026 178.102 84.4578 180.338 86.6922C182.573 88.9266 183.829 91.9573 183.83 95.1178L183.839 237.511Z" fill="#92E3A9" stroke="#263238" stroke-linecap="round" stroke-linejoin="round"/>
<path d="M174.709 82.1201H112.608C109.562 82.1213 106.642 83.3307 104.487 85.4829C102.332 87.6351 101.119 90.5543 101.115 93.5997V244.806C101.115 247.854 102.326 250.777 104.481 252.932C106.636 255.088 109.56 256.299 112.608 256.299H174.709C177.757 256.299 180.681 255.088 182.836 252.932C184.991 250.777 186.202 247.854 186.202 244.806V93.5997C186.197 90.5543 184.985 87.6351 182.83 85.4829C180.675 83.3307 177.755 82.1213 174.709 82.1201ZM183.839 237.92C183.838 240.968 182.626 243.891 180.47 246.047C178.314 248.202 175.39 249.413 172.342 249.413H114.975C111.926 249.413 109.003 248.202 106.847 246.047C104.691 243.891 103.479 240.968 103.478 237.92V94.6953C103.478 93.1863 103.775 91.692 104.353 90.2979C104.93 88.9038 105.777 87.6371 106.844 86.5702C107.911 85.5034 109.178 84.6572 110.573 84.0802C111.967 83.5031 113.461 83.2063 114.97 83.2069H139.03L139.056 83.2905C139.76 85.8073 141.362 87.4397 143.148 87.4397H144.16C145.946 87.4397 147.552 85.8029 148.252 83.2861L148.283 83.2025H172.333C173.844 83.2008 175.34 83.4969 176.736 84.074C178.133 84.651 179.401 85.4977 180.47 86.5656C181.539 87.6334 182.386 88.9015 182.964 90.2972C183.543 91.693 183.84 93.189 183.839 94.6997V237.92Z" fill="#263238" stroke="#263238" stroke-linecap="round" stroke-linejoin="round"/>
<path d="M144.53 83.7748C144.529 83.554 144.462 83.3383 144.339 83.1551C144.216 82.9719 144.041 82.8294 143.837 82.7454C143.632 82.6615 143.408 82.64 143.191 82.6836C142.975 82.7273 142.776 82.834 142.62 82.9905C142.464 83.147 142.358 83.3461 142.316 83.5628C142.273 83.7795 142.295 84.004 142.38 84.2079C142.465 84.4119 142.608 84.5862 142.792 84.7088C142.975 84.8314 143.191 84.8968 143.412 84.8968C143.559 84.8968 143.705 84.8678 143.841 84.8113C143.977 84.7549 144.1 84.6722 144.204 84.5679C144.308 84.4637 144.39 84.34 144.446 84.2039C144.502 84.0678 144.53 83.922 144.53 83.7748Z" fill="white"/>
<path d="M110.623 88.0647C110.623 89.1955 109.352 89.6047 109.343 90.4671V90.5199H110.579V90.9027H108.934V90.5815C108.934 89.3671 110.205 89.1339 110.205 88.0735C110.205 87.6907 110.073 87.4839 109.765 87.4839C109.457 87.4839 109.325 87.7039 109.325 88.0383V88.3683H108.934V88.0647C108.934 87.4883 109.193 87.1099 109.774 87.1099C110.355 87.1099 110.623 87.4883 110.623 88.0647Z" fill="#263238"/>
<path d="M112.678 88.0559V88.1527C112.697 88.3118 112.664 88.4727 112.585 88.612C112.506 88.7512 112.384 88.8616 112.238 88.9271C112.385 88.9921 112.508 89.1031 112.587 89.2434C112.667 89.3838 112.698 89.546 112.678 89.7059V89.9963C112.678 90.5683 112.41 90.9423 111.829 90.9423C111.248 90.9423 110.988 90.5683 110.988 89.9963V89.7367H111.38V90.0227C111.38 90.3571 111.516 90.5639 111.82 90.5639C112.124 90.5639 112.26 90.3659 112.26 89.9831V89.6927C112.26 89.3231 112.102 89.1471 111.785 89.1383H111.56V88.7599H111.807C111.871 88.7608 111.936 88.7475 111.994 88.7209C112.053 88.6942 112.106 88.6549 112.148 88.6058C112.19 88.5566 112.22 88.4988 112.238 88.4365C112.255 88.3741 112.258 88.3088 112.247 88.2451V88.0735C112.247 87.6863 112.11 87.4883 111.807 87.4883C111.503 87.4883 111.367 87.6995 111.367 88.0383V88.2275H110.975V88.0559C110.975 87.4839 111.244 87.1143 111.816 87.1143C112.388 87.1143 112.678 87.4839 112.678 88.0559Z" fill="#263238"/>
<path d="M113.488 88.3418V88.861H113.083V88.3418H113.488ZM113.488 90.3878V90.907H113.083V90.3878H113.488Z" fill="#263238"/>
<path d="M114.337 88.6806C114.39 88.5817 114.471 88.4999 114.569 88.4446C114.667 88.3893 114.779 88.3629 114.891 88.3682C115.375 88.3682 115.591 88.7246 115.591 89.2482V89.983C115.591 90.555 115.318 90.929 114.742 90.929C114.165 90.929 113.901 90.555 113.901 89.983V89.7278H114.293V90.0094C114.293 90.3438 114.434 90.5506 114.733 90.5506C115.032 90.5506 115.173 90.3438 115.173 90.0094V89.2922C115.173 88.9534 115.032 88.751 114.733 88.751C114.677 88.7462 114.621 88.7529 114.568 88.7707C114.515 88.7886 114.466 88.8173 114.425 88.8549C114.384 88.8925 114.351 88.9383 114.328 88.9893C114.305 89.0403 114.293 89.0955 114.293 89.1514V89.2394H113.906L114.007 87.1494H115.485V87.5278H114.381L114.337 88.6806Z" fill="#263238"/>
<path d="M117.676 88.0515V88.1219H117.285V88.0251C117.285 87.6863 117.148 87.4883 116.845 87.4883C116.541 87.4883 116.405 87.6951 116.405 88.0955V88.9359C116.45 88.8129 116.533 88.7077 116.642 88.6356C116.752 88.5635 116.881 88.5284 117.012 88.5355C117.496 88.5355 117.712 88.8831 117.712 89.4155V89.9875C117.712 90.5595 117.426 90.9335 116.832 90.9335C116.238 90.9335 115.952 90.5595 115.952 89.9875V88.0779C115.952 87.4839 116.22 87.1143 116.832 87.1143C117.443 87.1143 117.676 87.4795 117.676 88.0515ZM116.383 89.4595V90.0227C116.383 90.3571 116.524 90.5639 116.823 90.5639C117.122 90.5639 117.263 90.3571 117.263 90.0227V89.4595C117.263 89.1207 117.118 88.9183 116.823 88.9183C116.528 88.9183 116.383 89.1207 116.383 89.4595Z" fill="#263238"/>
<path d="M158.671 88.2188H157.611V90.8676H158.671V88.2188Z" fill="#263238"/>
<path d="M160.084 87.686H159.023V90.8672H160.084V87.686Z" fill="#263238"/>
<path d="M161.496 87.3076H160.436V90.8672H161.496V87.3076Z" fill="#263238"/>
<path d="M162.913 86.6523H161.852V90.8675H162.913V86.6523Z" fill="#263238"/>
<path d="M176.029 90.7968H169.68V86.9072H176.038L176.029 90.7968ZM170.023 90.4404H175.677V87.2592H170.023V90.4404Z" fill="#263238"/>
<path d="M173.908 87.6465H170.551V90.0577H173.908V87.6465Z" fill="#263238"/>
<path d="M176.61 88.3945H175.809V89.3097H176.61V88.3945Z" fill="#263238"/>
<path d="M167.339 89.9478C167.296 89.9487 167.254 89.9381 167.216 89.917C165.922 89.147 165.064 89.8598 165.016 89.8906C164.972 89.9347 164.911 89.9594 164.849 89.9594C164.786 89.9594 164.726 89.9347 164.682 89.8906C164.641 89.8428 164.621 89.7813 164.625 89.719C164.63 89.6567 164.658 89.5984 164.704 89.5562C164.748 89.5166 165.843 88.5794 167.445 89.5298C167.472 89.5457 167.495 89.5667 167.514 89.5917C167.533 89.6167 167.546 89.6451 167.554 89.6753C167.562 89.7055 167.564 89.737 167.559 89.7679C167.555 89.7988 167.544 89.8286 167.528 89.8554C167.506 89.8846 167.478 89.9081 167.445 89.9242C167.412 89.9402 167.376 89.9483 167.339 89.9478Z" fill="#263238"/>
<path d="M167.814 89.1516C167.772 89.1529 167.73 89.1406 167.696 89.1164C165.821 88.0032 164.563 89.0812 164.55 89.09C164.505 89.1341 164.445 89.1588 164.382 89.1588C164.32 89.1588 164.26 89.1341 164.215 89.09C164.175 89.0415 164.154 88.9793 164.159 88.9162C164.163 88.8532 164.191 88.7941 164.237 88.7512C164.237 88.7512 165.773 87.4312 167.938 88.7512C167.982 88.7783 168.016 88.8189 168.034 88.867C168.053 88.9151 168.056 88.968 168.042 89.0177C168.028 89.0674 167.998 89.1112 167.957 89.1426C167.916 89.1739 167.866 89.1909 167.814 89.1912V89.1516Z" fill="#263238"/>
<path d="M168.25 88.2275C168.208 88.2267 168.167 88.2146 168.131 88.1923C165.76 86.7843 164.171 88.1087 164.118 88.1659C164.096 88.1884 164.07 88.2063 164.041 88.2185C164.012 88.2307 163.981 88.2369 163.949 88.2369C163.917 88.2369 163.886 88.2307 163.857 88.2185C163.828 88.2063 163.802 88.1884 163.78 88.1659C163.739 88.1181 163.719 88.0566 163.723 87.9943C163.727 87.932 163.756 87.8737 163.802 87.8315C163.824 87.8315 165.694 86.2123 168.373 87.8051C168.427 87.838 168.465 87.8903 168.481 87.951C168.496 88.0118 168.488 88.0762 168.457 88.1307C168.433 88.1624 168.401 88.1877 168.365 88.2045C168.329 88.2214 168.29 88.2293 168.25 88.2275Z" fill="#263238"/>
<path d="M166.622 90.3484C166.622 90.467 166.587 90.5828 166.521 90.6813C166.455 90.7798 166.361 90.8565 166.252 90.9017C166.142 90.9468 166.021 90.9584 165.905 90.935C165.789 90.9115 165.682 90.8541 165.599 90.77C165.515 90.6858 165.459 90.5788 165.436 90.4624C165.414 90.3461 165.426 90.2256 165.472 90.1164C165.518 90.0071 165.595 89.9139 165.694 89.8487C165.793 89.7835 165.91 89.7491 166.028 89.75C166.106 89.75 166.184 89.7655 166.256 89.7956C166.329 89.8258 166.394 89.8699 166.45 89.9255C166.505 89.9812 166.548 90.0472 166.578 90.1198C166.608 90.1923 166.623 90.27 166.622 90.3484Z" fill="#263238"/>
<path d="M169.359 239.416L171.502 237.274C171.618 237.148 171.682 236.983 171.679 236.812C171.676 236.641 171.606 236.478 171.485 236.357C171.364 236.236 171.201 236.167 171.03 236.164C170.859 236.161 170.694 236.224 170.569 236.341L168.426 238.484L166.283 236.341C166.159 236.216 165.991 236.146 165.816 236.146C165.641 236.146 165.472 236.215 165.348 236.339C165.224 236.462 165.154 236.63 165.153 236.806C165.153 236.981 165.222 237.149 165.346 237.274L167.48 239.416L165.333 241.559C165.21 241.683 165.142 241.851 165.142 242.026C165.142 242.2 165.21 242.368 165.333 242.492C165.457 242.616 165.626 242.685 165.801 242.685C165.977 242.685 166.145 242.616 166.27 242.492L168.413 240.349L170.556 242.492C170.616 242.554 170.689 242.603 170.769 242.636C170.849 242.669 170.935 242.686 171.022 242.686C171.109 242.687 171.195 242.67 171.275 242.637C171.355 242.604 171.428 242.554 171.488 242.492C171.55 242.431 171.599 242.358 171.633 242.278C171.666 242.198 171.683 242.112 171.683 242.026C171.683 241.939 171.666 241.853 171.633 241.773C171.599 241.693 171.55 241.62 171.488 241.559L169.359 239.416Z" fill="#263238"/>
<path d="M116.783 213.404V209.07L116.629 209.131L116.374 209.206L116.119 209.276C116.064 209.289 116.011 209.307 115.96 209.329V208.647L116.189 208.555L116.484 208.418C116.585 208.37 116.682 208.314 116.774 208.251C116.855 208.196 116.929 208.131 116.994 208.058H117.694V213.404H116.783Z" fill="#263238"/>
<path d="M141.432 213.403V212.761L142.752 210.719C142.849 210.57 142.941 210.429 143.025 210.279C143.113 210.142 143.184 209.994 143.236 209.839C143.294 209.683 143.322 209.517 143.32 209.351C143.326 209.197 143.29 209.045 143.214 208.911C143.177 208.858 143.128 208.816 143.07 208.788C143.012 208.76 142.948 208.748 142.884 208.753C142.824 208.749 142.763 208.757 142.707 208.778C142.65 208.798 142.598 208.83 142.554 208.871C142.472 208.957 142.415 209.063 142.391 209.179C142.361 209.324 142.346 209.471 142.347 209.619V209.848H141.467V209.611C141.461 209.325 141.51 209.041 141.612 208.775C141.696 208.544 141.85 208.346 142.052 208.207C142.291 208.066 142.563 207.995 142.84 208C143.028 207.985 143.217 208.009 143.395 208.073C143.572 208.137 143.734 208.238 143.87 208.37C144.112 208.656 144.235 209.025 144.213 209.399C144.215 209.603 144.184 209.805 144.12 209.998C144.057 210.176 143.974 210.347 143.874 210.508C143.774 210.672 143.664 210.84 143.544 211.01L142.448 212.673H144.072V213.403H141.432Z" fill="#263238"/>
<path d="M167.181 213.482C166.899 213.495 166.62 213.431 166.371 213.298C166.17 213.171 166.016 212.983 165.931 212.761C165.835 212.504 165.788 212.23 165.795 211.956V211.771H166.675V211.925C166.676 212.073 166.693 212.22 166.723 212.365C166.742 212.469 166.793 212.564 166.868 212.638C166.956 212.703 167.063 212.736 167.172 212.73C167.227 212.734 167.282 212.727 167.334 212.71C167.386 212.693 167.434 212.665 167.476 212.629C167.551 212.549 167.601 212.447 167.616 212.338C167.64 212.193 167.652 212.046 167.652 211.898C167.661 211.677 167.617 211.457 167.524 211.256C167.471 211.173 167.397 211.107 167.31 211.062C167.222 211.018 167.125 210.999 167.027 211.005H166.873V210.244H167.04C167.133 210.252 167.226 210.239 167.313 210.206C167.4 210.172 167.478 210.119 167.542 210.05C167.647 209.866 167.695 209.655 167.678 209.443C167.686 209.262 167.651 209.081 167.577 208.915C167.536 208.85 167.478 208.797 167.409 208.764C167.339 208.73 167.262 208.717 167.185 208.726C167.107 208.718 167.029 208.734 166.961 208.772C166.892 208.809 166.837 208.867 166.802 208.937C166.733 209.111 166.699 209.296 166.701 209.483V209.681H165.821V209.426C165.813 209.159 165.868 208.894 165.98 208.651C166.083 208.443 166.249 208.272 166.455 208.163C166.687 208.044 166.946 207.986 167.207 207.996C167.472 207.986 167.735 208.042 167.973 208.158C168.176 208.265 168.341 208.433 168.444 208.638C168.558 208.877 168.613 209.139 168.606 209.404C168.607 209.688 168.521 209.966 168.36 210.2C168.246 210.392 168.064 210.534 167.85 210.596C167.99 210.64 168.117 210.719 168.219 210.825C168.334 210.951 168.418 211.101 168.466 211.265C168.532 211.469 168.563 211.684 168.558 211.898C168.562 212.186 168.516 212.472 168.422 212.743C168.341 212.977 168.186 213.177 167.982 213.315C167.736 213.447 167.458 213.505 167.181 213.482Z" fill="#263238"/>
<path d="M117.228 222.881V221.561H115.63V220.782L117.021 217.526H118.086V220.835H118.64V221.561H118.094V222.881H117.228ZM116.396 220.844H117.228V218.521L116.396 220.844Z" fill="#263238"/>
<path d="M142.84 222.96C142.551 222.978 142.263 222.909 142.013 222.762C141.815 222.63 141.672 222.432 141.608 222.204C141.525 221.927 141.487 221.639 141.494 221.35H142.374C142.371 221.511 142.382 221.671 142.409 221.83C142.422 221.949 142.473 222.061 142.554 222.151C142.595 222.192 142.645 222.223 142.7 222.242C142.755 222.261 142.813 222.268 142.871 222.261C142.934 222.267 142.998 222.257 143.056 222.23C143.114 222.204 143.164 222.163 143.201 222.111C143.271 221.984 143.312 221.843 143.32 221.698C143.32 221.517 143.346 221.31 143.346 221.073C143.349 220.892 143.337 220.711 143.311 220.532C143.297 220.401 143.248 220.276 143.17 220.171C143.128 220.126 143.077 220.092 143.019 220.069C142.962 220.047 142.901 220.038 142.84 220.043C142.781 220.042 142.723 220.053 142.669 220.075C142.614 220.097 142.565 220.129 142.523 220.171C142.434 220.268 142.371 220.386 142.338 220.514H141.551L141.604 217.535H144.006V218.354H142.374L142.321 219.643C142.397 219.553 142.496 219.486 142.607 219.449C142.748 219.397 142.896 219.369 143.047 219.366C143.289 219.341 143.532 219.404 143.733 219.542C143.919 219.689 144.054 219.89 144.12 220.118C144.209 220.403 144.252 220.7 144.248 220.998C144.25 221.259 144.231 221.519 144.191 221.777C144.161 221.993 144.091 222.202 143.984 222.393C143.88 222.567 143.727 222.708 143.544 222.798C143.326 222.908 143.084 222.964 142.84 222.96Z" fill="#263238"/>
<path d="M167.212 222.96C166.925 222.972 166.642 222.89 166.406 222.727C166.201 222.565 166.047 222.346 165.966 222.098C165.871 221.814 165.824 221.517 165.826 221.218V219.343C165.822 219.025 165.861 218.709 165.944 218.402C166.015 218.139 166.17 217.906 166.384 217.737C166.631 217.562 166.931 217.476 167.234 217.495C167.497 217.484 167.76 217.536 167.999 217.649C168.191 217.743 168.345 217.898 168.439 218.089C168.537 218.32 168.584 218.569 168.576 218.82C168.576 218.82 168.576 218.846 168.576 218.864C168.578 218.878 168.578 218.893 168.576 218.908H167.696C167.705 218.725 167.677 218.542 167.612 218.371C167.575 218.308 167.52 218.258 167.454 218.226C167.388 218.195 167.314 218.184 167.242 218.195C167.191 218.193 167.14 218.201 167.093 218.219C167.045 218.237 167.002 218.265 166.965 218.301C166.881 218.397 166.828 218.517 166.811 218.644C166.772 218.857 166.754 219.074 166.758 219.291V219.929C166.827 219.823 166.925 219.739 167.04 219.687C167.223 219.614 167.42 219.586 167.616 219.604C167.812 219.622 168 219.687 168.166 219.792C168.339 219.933 168.465 220.123 168.527 220.338C168.601 220.598 168.637 220.868 168.633 221.139C168.637 221.454 168.592 221.769 168.501 222.071C168.424 222.328 168.27 222.555 168.061 222.723C167.813 222.897 167.513 222.981 167.212 222.96ZM167.212 222.252C167.266 222.255 167.32 222.247 167.371 222.226C167.421 222.205 167.466 222.174 167.502 222.133C167.576 222.037 167.625 221.923 167.643 221.803C167.671 221.64 167.684 221.475 167.682 221.31C167.682 221.117 167.682 220.941 167.66 220.791C167.651 220.661 167.609 220.535 167.537 220.426C167.497 220.379 167.446 220.343 167.388 220.32C167.331 220.297 167.269 220.288 167.207 220.294C167.136 220.293 167.066 220.306 167 220.333C166.939 220.361 166.883 220.398 166.833 220.443C166.791 220.483 166.754 220.527 166.723 220.575V221.416C166.724 221.555 166.738 221.693 166.767 221.829C166.79 221.944 166.843 222.05 166.921 222.137C166.96 222.176 167.006 222.205 167.057 222.224C167.108 222.243 167.162 222.251 167.216 222.247L167.212 222.252Z" fill="#263238"/>
<path d="M116.238 232.359L117.32 227.712H115.872V227.013H118.2V227.572L117.122 232.359H116.238Z" fill="#263238"/>
<path d="M142.8 232.429C142.514 232.443 142.229 232.373 141.982 232.226C141.776 232.09 141.621 231.889 141.542 231.654C141.449 231.381 141.405 231.094 141.41 230.805C141.408 230.658 141.421 230.51 141.45 230.365C141.476 230.241 141.519 230.121 141.577 230.009C141.629 229.906 141.698 229.813 141.78 229.732C141.857 229.65 141.948 229.581 142.048 229.529C141.883 229.414 141.747 229.264 141.648 229.089C141.533 228.863 141.475 228.612 141.48 228.359C141.475 228.101 141.523 227.845 141.621 227.606C141.71 227.399 141.864 227.228 142.061 227.118C142.288 226.997 142.543 226.937 142.8 226.946C143.058 226.936 143.313 226.996 143.54 227.118C143.735 227.229 143.89 227.4 143.98 227.606C144.081 227.844 144.127 228.101 144.116 228.359C144.123 228.613 144.067 228.866 143.953 229.094C143.859 229.269 143.725 229.42 143.562 229.534C143.663 229.585 143.755 229.654 143.834 229.736C143.915 229.817 143.982 229.911 144.032 230.013C144.091 230.126 144.134 230.246 144.16 230.37C144.19 230.514 144.205 230.662 144.204 230.81C144.214 231.098 144.169 231.387 144.072 231.659C143.992 231.892 143.837 232.093 143.632 232.231C143.381 232.378 143.091 232.447 142.8 232.429ZM142.8 231.738C142.861 231.743 142.922 231.734 142.979 231.711C143.035 231.688 143.086 231.652 143.126 231.606C143.205 231.51 143.255 231.394 143.271 231.272C143.293 231.135 143.303 230.997 143.302 230.858C143.308 230.711 143.298 230.563 143.271 230.418C143.249 230.295 143.198 230.178 143.122 230.079C143.082 230.034 143.032 229.999 142.976 229.976C142.921 229.953 142.86 229.943 142.8 229.947C142.742 229.943 142.683 229.953 142.629 229.976C142.574 229.999 142.526 230.034 142.488 230.079C142.41 230.176 142.357 230.291 142.334 230.414C142.307 230.559 142.293 230.706 142.294 230.854C142.293 230.994 142.305 231.134 142.33 231.272C142.347 231.395 142.399 231.511 142.479 231.606C142.518 231.654 142.567 231.693 142.622 231.72C142.678 231.746 142.739 231.76 142.8 231.76V231.738ZM142.8 229.182C142.849 229.183 142.898 229.173 142.943 229.153C142.988 229.134 143.028 229.104 143.06 229.067C143.132 228.982 143.179 228.878 143.196 228.768C143.225 228.623 143.238 228.476 143.236 228.328C143.243 228.157 143.21 227.987 143.139 227.831C143.107 227.77 143.058 227.719 142.998 227.685C142.938 227.652 142.869 227.637 142.8 227.642C142.732 227.637 142.663 227.653 142.603 227.686C142.543 227.72 142.494 227.77 142.462 227.831C142.382 227.981 142.344 228.15 142.352 228.319C142.349 228.467 142.364 228.615 142.396 228.759C142.413 228.872 142.462 228.977 142.536 229.063C142.569 229.1 142.61 229.13 142.656 229.151C142.701 229.171 142.75 229.182 142.8 229.182Z" fill="#263238"/>
<path d="M142.8 241.717C142.529 241.73 142.26 241.662 142.026 241.524C141.821 241.391 141.66 241.199 141.564 240.974C141.456 240.72 141.403 240.445 141.41 240.169V237.797C141.404 237.517 141.455 237.238 141.56 236.979C141.645 236.754 141.799 236.561 142 236.429C142.242 236.299 142.512 236.231 142.787 236.231C143.062 236.231 143.333 236.299 143.575 236.429C143.774 236.563 143.928 236.755 144.015 236.979C144.118 237.239 144.169 237.517 144.164 237.797V240.169C144.17 240.445 144.116 240.72 144.006 240.974C143.91 241.199 143.749 241.391 143.544 241.524C143.319 241.657 143.061 241.724 142.8 241.717ZM142.8 240.934C142.857 240.938 142.914 240.929 142.966 240.908C143.019 240.886 143.066 240.853 143.104 240.811C143.172 240.721 143.218 240.615 143.236 240.503C143.259 240.389 143.27 240.272 143.271 240.155V237.81C143.269 237.688 143.259 237.566 143.24 237.445C143.223 237.334 143.18 237.228 143.113 237.137C143.074 237.094 143.025 237.06 142.971 237.038C142.917 237.017 142.858 237.009 142.8 237.014C142.743 237.009 142.685 237.017 142.632 237.038C142.578 237.06 142.53 237.094 142.492 237.137C142.424 237.228 142.379 237.333 142.36 237.445C142.343 237.566 142.334 237.688 142.334 237.81V240.155C142.333 240.272 142.344 240.389 142.369 240.503C142.389 240.615 142.436 240.721 142.506 240.811C142.542 240.853 142.587 240.886 142.639 240.907C142.69 240.928 142.745 240.938 142.8 240.934Z" fill="#263238"/>
<path d="M167.119 232.429C166.856 232.439 166.595 232.385 166.358 232.27C166.163 232.171 166.008 232.008 165.918 231.808C165.82 231.575 165.773 231.323 165.782 231.069V230.999H166.662C166.652 231.181 166.682 231.362 166.75 231.531C166.788 231.595 166.845 231.646 166.912 231.678C166.979 231.71 167.054 231.722 167.128 231.712C167.179 231.715 167.23 231.707 167.278 231.689C167.326 231.67 167.369 231.642 167.405 231.606C167.485 231.504 167.535 231.382 167.55 231.254C167.586 231.043 167.602 230.83 167.599 230.616V229.974C167.533 230.079 167.436 230.162 167.322 230.211C167.183 230.271 167.033 230.303 166.882 230.304C166.638 230.32 166.396 230.25 166.2 230.106C166.026 229.957 165.9 229.759 165.839 229.538C165.761 229.277 165.724 229.005 165.729 228.733C165.722 228.419 165.768 228.107 165.865 227.809C165.944 227.559 166.097 227.339 166.305 227.18C166.545 227.019 166.83 226.939 167.119 226.951C167.405 226.936 167.687 227.015 167.924 227.175C168.13 227.328 168.283 227.54 168.364 227.782C168.461 228.066 168.508 228.363 168.505 228.662V230.554C168.51 230.874 168.468 231.193 168.382 231.5C168.311 231.765 168.157 231.999 167.942 232.169C167.706 232.348 167.415 232.439 167.119 232.429ZM167.119 229.613C167.225 229.619 167.33 229.586 167.414 229.52C167.483 229.465 167.543 229.398 167.59 229.322V228.491C167.591 228.351 167.578 228.21 167.55 228.073C167.531 227.961 167.482 227.856 167.41 227.769C167.372 227.729 167.326 227.698 167.275 227.677C167.224 227.656 167.17 227.647 167.115 227.65C167.061 227.647 167.008 227.656 166.958 227.677C166.908 227.697 166.864 227.729 166.829 227.769C166.751 227.864 166.701 227.978 166.684 228.099C166.655 228.263 166.642 228.43 166.644 228.596C166.643 228.768 166.652 228.94 166.67 229.111C166.675 229.242 166.716 229.368 166.789 229.476C166.829 229.525 166.881 229.563 166.939 229.587C166.997 229.611 167.061 229.62 167.124 229.613H167.119Z" fill="#263238"/>
<path d="M136.772 188.834V183.488H139.016V184.174H137.749V185.71H138.748V186.392H137.749V188.152H139.03V188.825L136.772 188.834Z" fill="#92E3A9"/>
<path d="M139.597 188.834V183.488H140.279L141.577 186.537V183.488H142.4V188.834H141.753L140.433 185.639V188.834H139.597Z" fill="#92E3A9"/>
<path d="M143.72 188.834V184.205H142.871V183.488H145.537V184.205H144.697V188.834H143.72Z" fill="#92E3A9"/>
<path d="M146.034 188.834V183.488H148.278V184.174H147.011V185.71H148.006V186.392H147.011V188.152H148.292V188.825L146.034 188.834Z" fill="#92E3A9"/>
<path d="M148.859 188.834V183.488H150.14C150.45 183.479 150.759 183.522 151.055 183.616C151.29 183.691 151.49 183.847 151.622 184.056C151.763 184.314 151.83 184.606 151.816 184.9C151.817 185.096 151.797 185.29 151.754 185.481C151.722 185.641 151.654 185.791 151.556 185.921C151.452 186.049 151.315 186.146 151.16 186.203L151.908 188.843H150.932L150.285 186.392H149.845V188.843L148.859 188.834ZM149.836 185.754H150.14C150.29 185.757 150.44 185.729 150.58 185.67C150.688 185.614 150.773 185.52 150.817 185.406C150.871 185.257 150.896 185.099 150.892 184.94C150.908 184.728 150.856 184.517 150.742 184.337C150.672 184.261 150.583 184.203 150.485 184.167C150.387 184.132 150.282 184.121 150.179 184.135H149.823L149.836 185.754Z" fill="#92E3A9"/>
<path d="M123.586 111.764L122.653 107.13H123.401L124.012 110.408L124.584 107.13H125.35L124.417 111.764H123.586Z" fill="#263238"/>
<path d="M125.825 111.764V107.13H127.77V107.724H126.674V109.044H127.554V109.634H126.674V111.2H127.783V111.781L125.825 111.764Z" fill="#263238"/>
<path d="M128.272 111.763V107.13H129.385C129.653 107.124 129.921 107.163 130.177 107.244C130.38 107.309 130.555 107.443 130.67 107.623C130.791 107.846 130.849 108.099 130.837 108.353C130.839 108.523 130.821 108.693 130.784 108.859C130.755 108.996 130.696 109.125 130.612 109.238C130.522 109.349 130.403 109.434 130.269 109.484L130.916 111.763H130.08L129.517 109.642H129.13V111.763H128.272ZM129.121 109.123H129.385C129.519 109.13 129.653 109.106 129.776 109.053C129.872 109.006 129.947 108.924 129.983 108.824C130.029 108.694 130.05 108.557 130.045 108.419C130.058 108.236 130.013 108.052 129.917 107.896C129.855 107.831 129.778 107.781 129.693 107.751C129.609 107.722 129.518 107.712 129.429 107.724H129.121V109.123Z" fill="#263238"/>
<path d="M131.492 111.764V107.13H132.328V111.764H131.492Z" fill="#263238"/>
<path d="M133.046 111.764V107.13H134.951V107.716H133.89V109.066H134.77V109.656H133.89V111.764H133.046Z" fill="#263238"/>
<path d="M135.413 111.764V107.13H136.24V111.764H135.413Z" fill="#263238"/>
<path d="M138.211 111.83C137.93 111.844 137.651 111.774 137.41 111.627C137.219 111.496 137.078 111.304 137.01 111.082C136.928 110.824 136.89 110.555 136.896 110.285V108.631C136.889 108.352 136.927 108.074 137.01 107.808C137.075 107.587 137.217 107.396 137.41 107.271C137.653 107.132 137.931 107.066 138.211 107.082C138.472 107.068 138.732 107.125 138.964 107.245C139.142 107.35 139.278 107.515 139.346 107.711C139.428 107.935 139.467 108.173 139.461 108.411V108.802H138.651V108.402C138.658 108.283 138.658 108.164 138.651 108.046C138.643 107.951 138.604 107.861 138.541 107.79C138.499 107.755 138.451 107.729 138.399 107.713C138.347 107.697 138.292 107.692 138.238 107.698C138.123 107.689 138.009 107.725 137.921 107.799C137.85 107.873 137.804 107.967 137.789 108.068C137.77 108.193 137.761 108.319 137.762 108.446V110.461C137.76 110.6 137.773 110.739 137.802 110.875C137.822 110.971 137.873 111.058 137.947 111.121C138.031 111.182 138.134 111.212 138.238 111.205C138.292 111.21 138.346 111.204 138.398 111.187C138.45 111.169 138.497 111.141 138.537 111.104C138.602 111.03 138.64 110.937 138.647 110.84C138.665 110.716 138.674 110.591 138.673 110.466V110.026H139.483V110.4C139.486 110.647 139.451 110.894 139.377 111.13C139.307 111.333 139.173 111.508 138.994 111.627C138.759 111.771 138.487 111.842 138.211 111.83Z" fill="#263238"/>
<path d="M139.817 111.764L140.741 107.13H141.648L142.572 111.764H141.788L141.608 110.694H140.798L140.614 111.764H139.817ZM140.886 110.158H141.52L141.203 108.213L140.886 110.158Z" fill="#263238"/>
<path d="M143.28 111.764V107.755H142.541V107.13H144.851V107.755H144.125V111.764H143.28Z" fill="#263238"/>
<path d="M145.3 111.764V107.13H146.136V111.764H145.3Z" fill="#263238"/>
<path d="M148.12 111.829C147.847 111.843 147.575 111.779 147.337 111.645C147.142 111.521 146.995 111.335 146.919 111.117C146.834 110.86 146.793 110.59 146.8 110.32V108.56C146.794 108.286 146.838 108.014 146.928 107.755C147 107.543 147.141 107.362 147.328 107.24C147.568 107.111 147.839 107.05 148.111 107.064C148.386 107.049 148.66 107.11 148.903 107.24C149.095 107.359 149.242 107.539 149.321 107.751C149.409 108.011 149.449 108.285 149.44 108.56V110.32C149.445 110.594 149.402 110.867 149.312 111.125C149.234 111.341 149.087 111.524 148.894 111.649C148.658 111.779 148.39 111.842 148.12 111.829ZM148.12 111.205C148.232 111.215 148.344 111.182 148.432 111.112C148.503 111.045 148.549 110.957 148.564 110.861C148.588 110.747 148.6 110.631 148.6 110.514V108.38C148.6 108.262 148.588 108.144 148.564 108.028C148.547 107.935 148.501 107.85 148.432 107.786C148.344 107.714 148.233 107.677 148.12 107.68C148.012 107.673 147.904 107.704 147.816 107.768C147.746 107.832 147.698 107.917 147.68 108.01C147.654 108.126 147.642 108.244 147.645 108.362V110.496C147.643 110.613 147.654 110.729 147.676 110.844C147.692 110.94 147.74 111.028 147.812 111.095C147.897 111.168 148.008 111.206 148.12 111.2V111.205Z" fill="#263238"/>
<path d="M150.074 111.764V107.13H150.663L151.79 109.77V107.13H152.485V111.764H151.926L150.795 109V111.768L150.074 111.764Z" fill="#263238"/>
<path d="M155.824 111.83C155.545 111.844 155.267 111.773 155.028 111.627C154.837 111.496 154.695 111.303 154.628 111.082C154.544 110.824 154.504 110.555 154.509 110.285V108.631C154.503 108.352 154.543 108.074 154.628 107.808C154.692 107.587 154.834 107.396 155.028 107.271C155.269 107.132 155.546 107.066 155.824 107.082C156.085 107.067 156.345 107.124 156.577 107.245C156.757 107.349 156.894 107.515 156.964 107.711C157.045 107.935 157.084 108.172 157.078 108.411V108.802H156.269V108.402C156.269 108.283 156.261 108.164 156.247 108.046C156.239 107.951 156.2 107.861 156.137 107.79C156.095 107.755 156.047 107.729 155.994 107.713C155.942 107.697 155.887 107.692 155.833 107.698C155.718 107.689 155.605 107.725 155.516 107.799C155.444 107.872 155.398 107.966 155.384 108.068C155.366 108.193 155.357 108.319 155.358 108.446V110.461C155.355 110.6 155.368 110.739 155.398 110.875C155.417 110.971 155.468 111.057 155.543 111.121C155.627 111.182 155.73 111.212 155.833 111.205C155.887 111.21 155.942 111.204 155.994 111.186C156.045 111.169 156.093 111.141 156.132 111.104C156.195 111.029 156.233 110.937 156.242 110.84C156.261 110.716 156.27 110.591 156.269 110.466V110.026H157.078V110.4C157.083 110.647 157.046 110.894 156.968 111.13C156.902 111.334 156.769 111.509 156.59 111.627C156.36 111.768 156.094 111.838 155.824 111.83Z" fill="#263238"/>
<path d="M158.926 111.829C158.653 111.843 158.382 111.779 158.143 111.645C157.948 111.521 157.801 111.335 157.725 111.117C157.637 110.856 157.595 110.582 157.602 110.307V108.56C157.595 108.287 157.637 108.014 157.725 107.755C157.803 107.542 157.95 107.363 158.143 107.245C158.39 107.129 158.659 107.069 158.931 107.069C159.203 107.069 159.472 107.129 159.718 107.245C159.912 107.363 160.059 107.542 160.136 107.755C160.229 108.013 160.272 108.286 160.264 108.56V110.32C160.271 110.594 160.228 110.867 160.136 111.125C160.059 111.342 159.912 111.526 159.718 111.649C159.477 111.783 159.202 111.845 158.926 111.829ZM158.926 111.205C159.039 111.215 159.15 111.182 159.239 111.112C159.308 111.044 159.355 110.957 159.375 110.861C159.397 110.747 159.407 110.63 159.406 110.514V108.38C159.408 108.262 159.398 108.144 159.375 108.028C159.354 107.936 159.307 107.852 159.239 107.786C159.146 107.728 159.04 107.697 158.931 107.697C158.822 107.697 158.715 107.728 158.623 107.786C158.552 107.85 158.505 107.935 158.486 108.028C158.462 108.144 158.451 108.262 158.451 108.38V110.514C158.452 110.63 158.462 110.747 158.482 110.861C158.498 110.958 158.546 111.046 158.618 111.112C158.706 111.179 158.816 111.211 158.926 111.2V111.205Z" fill="#263238"/>
<path d="M160.88 111.764V107.13H161.971C162.272 107.117 162.572 107.17 162.851 107.284C163.05 107.385 163.206 107.554 163.291 107.76C163.387 108.02 163.432 108.296 163.423 108.574V110.268C163.431 110.552 163.387 110.835 163.291 111.104C163.211 111.318 163.054 111.495 162.851 111.601C162.584 111.722 162.291 111.778 161.998 111.764H160.88ZM161.725 111.174H161.984C162.131 111.188 162.278 111.152 162.402 111.073C162.491 110.997 162.547 110.89 162.556 110.774C162.576 110.613 162.584 110.451 162.583 110.29V108.53C162.585 108.382 162.572 108.234 162.543 108.09C162.534 108.039 162.516 107.99 162.488 107.947C162.46 107.904 162.423 107.867 162.38 107.839C162.253 107.777 162.112 107.75 161.971 107.76H161.725V111.174Z" fill="#263238"/>
<path d="M164.074 111.764V107.13H166.019V107.724H164.919V109.044H165.799V109.634H164.919V111.2H166.032V111.781L164.074 111.764Z" fill="#263238"/>
<path d="M226.788 75.3091V96.9659" stroke="#263238" stroke-linecap="round" stroke-linejoin="round" stroke-dasharray="5 5"/>
<path d="M226.788 133.935V152.177C226.79 153.612 226.511 155.033 225.964 156.36C225.417 157.687 224.614 158.892 223.601 159.909C222.588 160.925 221.385 161.732 220.06 162.283C218.735 162.834 217.315 163.118 215.88 163.12H192.903" stroke="#263238" stroke-linecap="round" stroke-linejoin="round" stroke-dasharray="5 5"/>
<path d="M193.708 160.356L188.956 163.098L193.708 165.843V160.356Z" fill="#263238"/>
<path d="M251.139 106.673L212.094 98.6367L206.341 126.589L245.386 134.625L251.139 106.673Z" fill="#263238"/>
<path d="M249.118 104.071L210.072 96.0347L204.319 123.987L243.365 132.023L249.118 104.071Z" fill="white" stroke="#263238" stroke-miterlimit="10"/>
<path d="M210.072 96.0332L226.722 114.025L249.122 104.068" stroke="#263238" stroke-linecap="round" stroke-linejoin="round"/>
<path d="M220.645 253.391C220.645 253.391 213.016 243.2 203.494 236.16C193.972 229.12 185.806 226.216 183.562 226.889C181.318 227.563 179.351 229.727 179.351 229.727L152.744 256.444C152.744 256.444 143.966 263.374 142.998 263.981C142.03 264.589 137.498 267.413 134.722 268.285C131.946 269.156 127.4 269.019 127.378 269.864C127.356 270.709 127.968 271.36 129.323 271.932C131.842 272.924 134.505 273.503 137.208 273.648C139.27 273.684 141.321 273.958 143.32 274.467C144.266 274.704 146.98 275.949 147.645 274.907C148.309 273.864 149.229 267.867 149.458 267.237C149.686 266.608 158.121 260.514 164.026 257.623C169.931 254.733 177.16 249.976 179.241 247.71C181.322 245.444 184.385 241.942 184.385 241.942C184.385 241.942 193.849 250.896 197.11 255.12C200.37 259.344 205.606 264.575 215.101 268.984C224.596 273.393 228.09 269.798 228.741 266.217C229.392 262.635 220.645 253.391 220.645 253.391Z" fill="white" stroke="#263238" stroke-linecap="round" stroke-linejoin="round"/>
<path d="M203.494 236.16C193.968 229.12 185.806 226.216 183.562 226.889C181.318 227.563 179.351 229.727 179.351 229.727L153.057 256.127C153.629 257.725 154.927 259.784 157.897 261.135C159.88 259.855 161.929 258.68 164.035 257.615C169.94 254.719 177.169 249.963 179.25 247.697C181.331 245.431 184.394 241.929 184.394 241.929C184.394 241.929 193.858 250.883 197.118 255.107C200.379 259.331 209.214 271.153 219.338 273.815C237.972 278.721 237.339 269.222 237.972 265.64C238.606 262.059 220.654 253.377 220.654 253.377C220.654 253.377 213.016 243.2 203.494 236.16Z" fill="#263238" stroke="#263238" stroke-linecap="round" stroke-linejoin="round"/>
<path d="M127.378 269.864C127.352 270.709 127.968 271.36 129.323 271.932C131.842 272.924 134.505 273.503 137.208 273.648C139.27 273.684 141.321 273.958 143.32 274.467C144.266 274.704 146.98 275.949 147.645 274.907C148.217 274.027 148.965 269.455 149.326 267.796C146.426 267.889 143.13 266.626 143.13 266.626C143.13 266.626 143.364 265.891 142.998 263.986C142.026 264.593 137.498 267.418 134.722 268.289C131.946 269.16 127.4 269.019 127.378 269.864Z" fill="white" stroke="#263238" stroke-linecap="round" stroke-linejoin="round"/>
<path d="M253.372 214.288C250.851 212.035 245.184 206.64 241.224 199.891C237.264 193.141 238.346 190.985 235.376 185.674C232.406 180.364 228.09 177.754 222.238 178.925C217.49 179.875 215.053 182.726 214.318 183.765C214.146 183.998 213.975 184.205 213.79 184.442C212.936 185.441 210.235 189.146 208.215 197.823C205.782 208.26 205.874 213.386 209.562 215.814C213.249 218.243 215.862 217.165 216.94 218.336C218.018 219.506 218.379 220.945 217.482 220.945C217.231 220.953 216.982 220.91 216.749 220.817C216.517 220.723 216.306 220.583 216.131 220.404C216.131 220.404 218.199 223.554 220.179 222.652C222.159 221.75 224.407 218.516 222.968 214.195C221.53 209.874 217.662 205.47 217.028 204.66C216.395 203.851 215.141 194.492 215.141 194.492C215.141 194.492 215.233 191.342 218.74 192.424C222.247 193.506 227.016 195.482 228.548 198.632C230.079 201.783 235.746 208.889 240.692 211.045C245.637 213.201 247.622 215.185 249.421 220.496C251.221 225.807 251.221 227.51 251.221 227.51C251.221 227.51 254.908 225.802 255.621 221.935C256.334 218.067 255.889 216.536 253.372 214.288ZM209.914 214.464C208.206 212.576 209.284 209.157 209.284 209.157C208.743 213.997 214.322 216.716 214.322 216.716C214.322 216.716 211.625 216.36 209.914 214.464Z" fill="#263238" stroke="#263238" stroke-linecap="round" stroke-linejoin="round"/>
<path d="M221.041 254.2C221.041 254.2 209.095 252.084 206.134 253.144C203.173 254.204 195.455 266.89 194.078 268.368C192.701 269.846 191.222 270.484 189.955 270.484C188.688 270.484 184.138 269.64 181.494 270.168C178.85 270.696 175.572 272.39 175.893 273.974C176.214 275.558 177.688 276.301 182.554 277.054C187.421 277.806 192.6 275.998 193.972 275.254C195.345 274.51 196.934 273.459 197.356 273.248C197.778 273.036 201.584 272.187 203.701 270.814C205.272 269.733 206.756 268.532 208.14 267.22C208.14 267.22 217.13 271.342 220.513 273.142C223.897 274.942 229.186 276.103 232.147 276.103C235.108 276.103 241.558 275.254 243.147 274.515C244.735 273.776 247.692 270.92 247.692 267.646C247.692 264.373 248.044 259.792 246.966 259.594C245.888 259.396 244.942 259.823 243.886 259.718C242.83 259.612 237.009 256.334 235.526 255.696C234.043 255.058 221.041 254.2 221.041 254.2Z" fill="#263238" stroke="#263238" stroke-linecap="round" stroke-linejoin="round"/>
<path d="M202.539 256.928C203.662 255.603 204.863 254.345 206.134 253.162C207.454 252.101 217.262 253.236 217.262 253.236" stroke="white" stroke-linecap="round" stroke-linejoin="round"/>
<path d="M200.665 259.08C200.665 259.08 201.105 258.547 201.774 257.799" stroke="white" stroke-linecap="round" stroke-linejoin="round"/>
<path d="M193.757 268.72C192.476 269.965 191.117 270.515 189.955 270.515C188.684 270.515 184.138 269.671 181.494 270.199C178.85 270.727 175.572 272.421 175.893 274.005C176.214 275.589 177.688 276.332 182.554 277.085C187.421 277.837 192.6 276.029 193.972 275.285C195.345 274.541 196.85 273.525 197.321 273.296C196.425 272.845 195.641 272.2 195.024 271.409C194.408 270.617 193.975 269.699 193.757 268.72Z" fill="white" stroke="#263238" stroke-linecap="round" stroke-linejoin="round"/>
<path d="M190.272 272.724C189.762 271.893 190.329 270.964 190.862 270.397C190.564 270.465 190.26 270.501 189.955 270.502C188.684 270.502 184.138 269.657 181.494 270.185C178.85 270.713 175.572 272.407 175.893 273.991C176.214 275.575 177.688 276.319 182.554 277.071C187.421 277.824 192.6 276.015 193.972 275.272C194.184 275.162 194.412 275.039 194.615 274.915C193.277 274.717 191.011 273.921 190.272 272.724Z" fill="white" stroke="#263238" stroke-linecap="round" stroke-linejoin="round"/>
<path d="M222.872 210.508C222.872 210.508 214.591 210.596 213.693 213.746C212.796 216.897 213.601 232.372 213.513 237.506C213.425 242.641 213.425 245.963 214.054 247.226C214.683 248.489 218.37 250.825 218.643 250.913C218.916 251.001 218.551 253.791 218.551 253.791C218.551 253.791 224.94 254.6 228.539 254.693C232.138 254.785 235.376 256.132 238.703 258.741C242.029 261.35 244.194 263.057 244.194 263.057L246.262 260.809C246.262 260.809 247.072 268.456 247.974 271.967C248.876 275.478 251.934 275.654 252.814 275.654C253.694 275.654 256.681 275.566 256.681 275.566C256.681 275.566 253.804 270.256 252.541 266.656C251.278 263.057 250.473 259.999 250.473 259.999C250.473 259.999 251.102 259.009 251.102 256.853C251.102 254.697 250.662 253.434 250.746 251.274C250.829 249.114 254.706 239.667 253.082 229.142C251.458 218.617 252.004 215.643 248.044 213.575C244.084 211.507 235.447 210.244 233.018 210.055C230.589 209.866 222.872 210.508 222.872 210.508Z" fill="#92E3A9" stroke="#263238" stroke-linecap="round" stroke-linejoin="round"/>
<path d="M217.02 204.66C216.784 204.156 216.621 203.622 216.536 203.072C214.648 199.917 212.941 196.661 212.492 195.112C211.81 192.767 212.334 188.306 212.69 185.96C211.471 187.896 209.658 191.566 208.206 197.84C205.773 208.277 205.866 213.403 209.553 215.832C213.24 218.261 215.854 217.183 216.932 218.353C218.01 219.524 218.37 220.962 217.473 220.962C217.222 220.971 216.973 220.927 216.74 220.834C216.508 220.741 216.297 220.6 216.122 220.421C216.122 220.421 218.19 223.572 220.17 222.67C222.15 221.768 224.398 218.534 222.96 214.213C221.521 209.892 217.64 205.47 217.02 204.66ZM209.914 214.464C208.206 212.576 209.284 209.157 209.284 209.157C208.743 213.997 214.322 216.716 214.322 216.716C214.322 216.716 211.625 216.36 209.914 214.464Z" fill="#263238" stroke="#263238" stroke-linecap="round" stroke-linejoin="round"/>
<path d="M234.307 252.097L236.877 252.466" stroke="#263238" stroke-linecap="round" stroke-linejoin="round"/>
<path d="M219.708 238.259C219.708 238.259 217.9 249.118 218.665 249.558C219.184 249.853 227.223 251.063 232.446 251.824" stroke="#263238" stroke-linecap="round" stroke-linejoin="round"/>
<path d="M219.435 250.108L218.551 253.782" stroke="#263238" stroke-linecap="round" stroke-linejoin="round"/>
<path d="M238.852 256.963C238.852 256.963 244.282 258.829 246.966 259.603C249.65 260.378 250.046 260.096 250.046 260.096" stroke="#263238" stroke-linecap="round" stroke-linejoin="round"/>
<path d="M229.744 218.621L233.806 220.927L233.916 217.526" stroke="#263238" stroke-linecap="round" stroke-linejoin="round"/>
<path d="M224.205 218.186L223.439 218.789" stroke="#263238" stroke-linecap="round" stroke-linejoin="round"/>
<path d="M219.105 225.534L219.052 223.448" stroke="#263238" stroke-linecap="round" stroke-linejoin="round"/>
<path d="M217.2 189.907C217.2 189.907 212.505 194.004 212.505 195.112C212.505 196.221 214.041 201.088 214.639 203.054C215.37 205.15 216.533 207.069 218.054 208.686C219.418 210.138 222.066 211.846 222.665 211.846C223.145 211.794 223.609 211.644 224.029 211.406C224.029 211.406 224.372 218.406 225.564 220.883C226.757 223.36 227.36 223.272 227.615 222.674C227.87 222.076 231.029 211.749 231.029 211.749L232.565 204.405L229.322 196.045C229.322 196.045 224.799 192.032 221.723 191.007C218.648 189.982 217.2 189.907 217.2 189.907Z" fill="white" stroke="#263238" stroke-linecap="round" stroke-linejoin="round"/>
<path d="M219.84 204.674C219.84 204.674 219.84 206.214 220.1 206.297C220.359 206.381 221.464 206.737 221.807 205.857" stroke="#263238" stroke-linecap="round" stroke-linejoin="round"/>
<path d="M220.773 208C220.773 208 223.334 208.343 224.187 206.548" stroke="#263238" stroke-linecap="round" stroke-linejoin="round"/>
<path d="M224.016 211.419C224.016 211.419 226.832 209.219 228.372 207.151C228.372 207.151 226.664 211.164 226.15 212.189C225.857 212.769 225.601 213.367 225.384 213.98L224.016 211.419Z" fill="#263238" stroke="#263238" stroke-linecap="round" stroke-linejoin="round"/>
<path d="M222.48 200.749C222.48 200.749 224.786 201.431 225.723 199.979" stroke="#263238" stroke-linecap="round" stroke-linejoin="round"/>
<path d="M221.455 198.698C221.455 198.698 224.016 197.246 225.811 197.845" stroke="#263238" stroke-linecap="round" stroke-linejoin="round"/>
<path d="M215.392 201.774C215.788 202.019 216.254 202.126 216.718 202.079C217.182 202.032 217.617 201.834 217.957 201.515" stroke="#263238" stroke-linecap="round" stroke-linejoin="round"/>
<path d="M217.785 199.64C217.785 199.64 216.505 198.782 214.626 199.724" stroke="#263238" stroke-linecap="round" stroke-linejoin="round"/>
<path d="M241.765 221.394C241.765 221.394 240.775 224.813 241.136 227.154C241.497 229.494 240.96 237.04 240.96 237.41C240.96 237.78 238.98 238.668 239.068 239.298C239.181 239.905 239.328 240.506 239.508 241.097L236.626 239.927L232.758 245.057C235.271 247.333 238.05 249.297 241.035 250.905C246.253 253.782 249.835 252.885 249.835 252.885C249.835 252.885 251.903 240.2 252.176 234.528C252.448 228.856 253.702 221.394 251.736 216.088C250.191 211.938 243.376 211.406 241.84 218.516" fill="#92E3A9"/>
<path d="M241.765 221.394C241.765 221.394 240.775 224.813 241.136 227.154C241.497 229.494 240.96 237.04 240.96 237.41C240.96 237.78 238.98 238.668 239.068 239.298C239.181 239.905 239.328 240.506 239.508 241.097L236.626 239.927L232.758 245.057C235.271 247.333 238.05 249.297 241.035 250.905C246.253 253.782 249.835 252.885 249.835 252.885C249.835 252.885 251.903 240.2 252.176 234.528C252.448 228.856 253.702 221.394 251.736 216.088C250.191 211.938 243.376 211.406 241.84 218.516" stroke="#263238" stroke-linecap="round" stroke-linejoin="round"/>
<path d="M246.557 235.615L247.432 235.25" stroke="#263238" stroke-linecap="round" stroke-linejoin="round"/>
<path d="M242.034 237.498L245.457 236.072" stroke="#263238" stroke-linecap="round" stroke-linejoin="round"/>
<path d="M240.146 241.277C240.146 241.277 247.701 239.39 247.626 240.019C247.551 240.648 245.017 240.899 245.017 240.899" stroke="#263238" stroke-linecap="round" stroke-linejoin="round"/>
<path d="M240.96 241.638C240.96 241.638 246.535 242.267 247.525 244.608" stroke="#263238" stroke-linecap="round" stroke-linejoin="round"/>
<path d="M246.574 246.927C246.896 247.134 247.245 247.292 247.613 247.398" stroke="#263238" stroke-linecap="round" stroke-linejoin="round"/>
<path d="M240.52 242.448C240.52 242.448 243.49 244.894 245.672 246.351" stroke="#263238" stroke-linecap="round" stroke-linejoin="round"/>
<path d="M205.668 225.864C205.668 225.864 203.639 230.198 204.405 230.911C205.17 231.623 209.782 236.063 210.222 236.283C210.662 236.503 211.92 240.344 212.58 241.823C213.24 243.301 213.623 246.759 214.881 247.252C216.14 247.745 218.841 245.171 218.885 243.855C218.929 242.54 218.885 242.043 217.68 240.335C216.474 238.628 213.72 233.15 213.72 233.15L206.2 224.984L205.668 225.864Z" fill="white" stroke="#263238" stroke-linecap="round" stroke-linejoin="round"/>
<path d="M202.156 220.487L210.657 234.312L217.187 235.188L210.824 222.626L202.156 220.487Z" fill="#263238" stroke="#263238" stroke-linecap="round" stroke-linejoin="round"/>
<path d="M236.635 239.926C236.635 239.926 226.92 233.08 224.398 231.381C223.143 230.558 221.94 229.656 220.799 228.68C220.799 228.68 220.531 226.973 219.919 226.251C219.308 225.529 218.661 225.371 217.49 225.441C216.32 225.512 215.33 225.714 214.608 225.441C213.887 225.169 212.54 222.925 212.36 223.915C212.18 224.905 212.272 225.622 213.17 226.343C214.067 227.065 215.33 227.333 215.691 227.509C216.052 227.685 215.119 227.839 215.119 227.839C213.671 228.349 212.124 228.518 210.6 228.332C209.094 228.137 207.622 227.74 206.222 227.153C205.593 226.973 205.681 227.87 206.402 228.411C207.124 228.953 207.568 229.221 207.568 229.221C207.568 229.221 205.32 228.86 205.593 229.582C205.866 230.303 206.851 230.933 207.48 231.381C208.11 231.83 208.739 232.64 209.28 232.908C209.821 233.177 209.909 234.439 210.811 234.981C211.713 235.522 211.445 235.46 213.742 235.671C216.15 235.865 218.571 235.844 220.975 235.61L232.763 245.057L236.635 239.926Z" fill="white" stroke="#263238" stroke-linecap="round" stroke-linejoin="round"/>
<path d="M207.573 229.221C207.573 229.221 209.826 230.299 210.182 230.299H215.044" stroke="#263238" stroke-linecap="round" stroke-linejoin="round"/>
<path d="M207.08 231.184C207.604 231.247 208.119 231.375 208.611 231.566C208.928 231.778 210.987 232.187 211.621 232.292C212.568 232.358 213.518 232.376 214.468 232.345" stroke="#263238" stroke-linecap="round" stroke-linejoin="round"/>
<path d="M209.28 232.909C209.28 232.909 211.792 234.141 212.268 234.229C213.288 234.255 214.309 234.22 215.326 234.123" stroke="#263238" stroke-linecap="round" stroke-linejoin="round"/>
<path d="M238.795 204.66C235.545 201.175 232.568 197.444 229.89 193.502C229.89 193.502 228.9 207.626 231.056 213.654C233.212 219.682 241.136 217.174 243.921 215.634C246.706 214.094 247.701 212.937 249.412 213.205C245.524 210.82 241.956 207.949 238.795 204.66Z" fill="#263238" stroke="#263238" stroke-linecap="round" stroke-linejoin="round"/>
<path d="M218.52 189.19C215.378 185.459 217.2 189.907 217.2 189.907C217.2 189.907 223.215 195.649 229.322 196.067C229.309 196.054 221.67 192.921 218.52 189.19Z" fill="#263238" stroke="#263238" stroke-linecap="round" stroke-linejoin="round"/>
</svg>
